<mxfile host="app.diagrams.net" modified="2024-06-03T14:40:56.229Z" agent="Mozilla/5.0 (Windows NT 10.0; Win64; x64) AppleWebKit/537.36 (KHTML, like Gecko) Chrome/121.0.0.0 Safari/537.36" etag="_ABRzHxw_C2qBgzntvLF" version="24.4.13" type="device">
  <diagram name="Página-1" id="sZ-v1k9veXdMkWaJkyul">
    <mxGraphModel dx="9493" dy="8717" grid="1" gridSize="10" guides="1" tooltips="1" connect="1" arrows="1" fold="1" page="1" pageScale="1" pageWidth="900" pageHeight="1600" math="0" shadow="0">
      <root>
        <mxCell id="0" />
        <mxCell id="1" parent="0" />
        <UserObject label="https://static.vecteezy.com/system/resources/previews/020/790/903/non_2x/trash-can-icon-for-web-ui-design-vector.jpg" id="YzzwRAZCWaj9JnVzKXwe-1">
          <mxCell style="rounded=1;whiteSpace=wrap;html=1;fillColor=#dae8fc;strokeColor=#6c8ebf;" vertex="1" parent="1">
            <mxGeometry x="-5004" y="-5430" width="2710" height="6540" as="geometry" />
          </mxCell>
        </UserObject>
        <mxCell id="YzzwRAZCWaj9JnVzKXwe-2" value="" style="rounded=1;whiteSpace=wrap;html=1;rotation=90;fillColor=#000000;" vertex="1" parent="1">
          <mxGeometry x="-5167" y="-4460" width="1290" height="670" as="geometry" />
        </mxCell>
        <mxCell id="YzzwRAZCWaj9JnVzKXwe-3" value="" style="rounded=1;whiteSpace=wrap;html=1;rotation=90;fillColor=#e1d5e7;strokeColor=#9673a6;" vertex="1" parent="1">
          <mxGeometry x="-5123" y="-4459" width="1203" height="650" as="geometry" />
        </mxCell>
        <mxCell id="YzzwRAZCWaj9JnVzKXwe-4" value="&lt;span style=&quot;font-size: 36px;&quot;&gt;III&lt;/span&gt;" style="text;html=1;align=center;verticalAlign=middle;resizable=0;points=[];autosize=1;strokeColor=none;fillColor=none;" vertex="1" parent="1">
          <mxGeometry x="-4732" y="-3590" width="50" height="60" as="geometry" />
        </mxCell>
        <mxCell id="YzzwRAZCWaj9JnVzKXwe-5" value="" style="endArrow=none;html=1;rounded=0;exitX=0.956;exitY=0.992;exitDx=0;exitDy=0;exitPerimeter=0;entryX=0.957;entryY=0.011;entryDx=0;entryDy=0;entryPerimeter=0;strokeWidth=4;" edge="1" parent="1" source="YzzwRAZCWaj9JnVzKXwe-3" target="YzzwRAZCWaj9JnVzKXwe-3">
          <mxGeometry width="50" height="50" relative="1" as="geometry">
            <mxPoint x="-4342" y="-3970" as="sourcePoint" />
            <mxPoint x="-4212" y="-3585" as="targetPoint" />
            <Array as="points" />
          </mxGeometry>
        </mxCell>
        <mxCell id="YzzwRAZCWaj9JnVzKXwe-6" value="" style="rounded=1;whiteSpace=wrap;html=1;strokeWidth=3;" vertex="1" parent="1">
          <mxGeometry x="-4536.5" y="-3575" width="30" height="30" as="geometry" />
        </mxCell>
        <mxCell id="YzzwRAZCWaj9JnVzKXwe-7" value="" style="triangle;whiteSpace=wrap;html=1;strokeWidth=3;" vertex="1" parent="1">
          <mxGeometry x="-4332" y="-3575" width="20" height="30" as="geometry" />
        </mxCell>
        <mxCell id="YzzwRAZCWaj9JnVzKXwe-8" value="" style="endArrow=none;html=1;rounded=0;exitX=0.028;exitY=0.972;exitDx=0;exitDy=0;exitPerimeter=0;entryX=0.026;entryY=0.031;entryDx=0;entryDy=0;entryPerimeter=0;strokeWidth=3;" edge="1" parent="1" source="YzzwRAZCWaj9JnVzKXwe-3" target="YzzwRAZCWaj9JnVzKXwe-3">
          <mxGeometry width="50" height="50" relative="1" as="geometry">
            <mxPoint x="-4815.949999999999" y="-4700" as="sourcePoint" />
            <mxPoint x="-4227.049999999999" y="-4696.391" as="targetPoint" />
          </mxGeometry>
        </mxCell>
        <mxCell id="YzzwRAZCWaj9JnVzKXwe-9" value="&lt;font style=&quot;font-size: 18px;&quot;&gt;09:09&lt;/font&gt;" style="text;html=1;align=center;verticalAlign=middle;whiteSpace=wrap;rounded=1;strokeWidth=22;fillColor=default;perimeterSpacing=0;shadow=0;glass=0;" vertex="1" parent="1">
          <mxGeometry x="-4782" y="-4726" width="60" height="20" as="geometry" />
        </mxCell>
        <mxCell id="YzzwRAZCWaj9JnVzKXwe-10" value="" style="html=1;verticalLabelPosition=bottom;align=center;labelBackgroundColor=#ffffff;verticalAlign=top;strokeWidth=2;strokeColor=#000000;shadow=0;dashed=0;shape=mxgraph.ios7.icons.battery;rotation=-90;" vertex="1" parent="1">
          <mxGeometry x="-4292" y="-4726" width="20" height="16" as="geometry" />
        </mxCell>
        <mxCell id="YzzwRAZCWaj9JnVzKXwe-11" value="&lt;p style=&quot;line-height: 230%;&quot;&gt;&lt;font style=&quot;font-size: 15px;&quot;&gt;50&lt;/font&gt;&lt;font style=&quot;font-size: 15px;&quot;&gt;%&lt;/font&gt;&lt;/p&gt;" style="text;html=1;align=center;verticalAlign=middle;resizable=0;points=[];autosize=1;strokeColor=none;fillColor=none;strokeWidth=4;" vertex="1" parent="1">
          <mxGeometry x="-4342" y="-4753" width="50" height="70" as="geometry" />
        </mxCell>
        <mxCell id="YzzwRAZCWaj9JnVzKXwe-12" value="" style="rounded=0;whiteSpace=wrap;html=1;rotation=90;strokeWidth=1;fillColor=#1B1D1F;strokeColor=#000000;" vertex="1" parent="1">
          <mxGeometry x="-4212" y="-4550" width="60" height="10" as="geometry" />
        </mxCell>
        <mxCell id="YzzwRAZCWaj9JnVzKXwe-13" value="" style="rounded=0;whiteSpace=wrap;html=1;rotation=90;strokeWidth=1;fillColor=#1B1D1F;strokeColor=#000000;" vertex="1" parent="1">
          <mxGeometry x="-4212" y="-4470" width="60" height="10" as="geometry" />
        </mxCell>
        <mxCell id="YzzwRAZCWaj9JnVzKXwe-14" value="" style="rounded=0;whiteSpace=wrap;html=1;rotation=90;strokeWidth=1;fillColor=#1B1D1F;strokeColor=#000000;" vertex="1" parent="1">
          <mxGeometry x="-4212" y="-4330" width="60" height="10" as="geometry" />
        </mxCell>
        <mxCell id="YzzwRAZCWaj9JnVzKXwe-15" value="&lt;font style=&quot;font-size: 48px;&quot;&gt;Cadastre:&lt;/font&gt;" style="text;html=1;align=center;verticalAlign=middle;whiteSpace=wrap;rounded=0;" vertex="1" parent="1">
          <mxGeometry x="-4724" y="-4620" width="404.5" height="30" as="geometry" />
        </mxCell>
        <mxCell id="YzzwRAZCWaj9JnVzKXwe-16" value="&lt;font style=&quot;font-size: 24px;&quot;&gt;Nome:&lt;/font&gt;" style="text;html=1;align=center;verticalAlign=middle;whiteSpace=wrap;rounded=0;" vertex="1" parent="1">
          <mxGeometry x="-4822" y="-4475" width="60" height="40" as="geometry" />
        </mxCell>
        <mxCell id="YzzwRAZCWaj9JnVzKXwe-17" value="" style="rounded=1;whiteSpace=wrap;html=1;" vertex="1" parent="1">
          <mxGeometry x="-4732" y="-4472.5" width="490" height="35" as="geometry" />
        </mxCell>
        <mxCell id="YzzwRAZCWaj9JnVzKXwe-18" value="&lt;font style=&quot;font-size: 24px;&quot;&gt;00/00/0000&lt;/font&gt;" style="rounded=1;whiteSpace=wrap;html=1;align=left;" vertex="1" parent="1">
          <mxGeometry x="-4592" y="-4400" width="240" height="35" as="geometry" />
        </mxCell>
        <mxCell id="YzzwRAZCWaj9JnVzKXwe-19" value="&lt;font style=&quot;font-size: 24px;&quot;&gt;CPF:&lt;/font&gt;" style="text;html=1;align=center;verticalAlign=middle;whiteSpace=wrap;rounded=0;" vertex="1" parent="1">
          <mxGeometry x="-4832" y="-4332.5" width="60" height="40" as="geometry" />
        </mxCell>
        <mxCell id="YzzwRAZCWaj9JnVzKXwe-20" value="&lt;font style=&quot;font-size: 24px;&quot;&gt;Número:&lt;/font&gt;" style="text;html=1;align=center;verticalAlign=middle;whiteSpace=wrap;rounded=0;" vertex="1" parent="1">
          <mxGeometry x="-4814" y="-4262.5" width="60" height="40" as="geometry" />
        </mxCell>
        <mxCell id="YzzwRAZCWaj9JnVzKXwe-21" value="&lt;font style=&quot;font-size: 24px;&quot;&gt;&amp;nbsp;(&amp;nbsp; )&lt;/font&gt;" style="rounded=1;whiteSpace=wrap;html=1;align=left;" vertex="1" parent="1">
          <mxGeometry x="-4732" y="-4262.5" width="240" height="35" as="geometry" />
        </mxCell>
        <mxCell id="YzzwRAZCWaj9JnVzKXwe-22" value="&lt;span style=&quot;font-size: 24px;&quot;&gt;Email:&lt;/span&gt;" style="text;html=1;align=center;verticalAlign=middle;whiteSpace=wrap;rounded=0;" vertex="1" parent="1">
          <mxGeometry x="-4822" y="-4130" width="60" height="40" as="geometry" />
        </mxCell>
        <mxCell id="YzzwRAZCWaj9JnVzKXwe-23" value="" style="rounded=1;whiteSpace=wrap;html=1;" vertex="1" parent="1">
          <mxGeometry x="-4732" y="-4130" width="490" height="35" as="geometry" />
        </mxCell>
        <mxCell id="YzzwRAZCWaj9JnVzKXwe-24" value="&lt;span style=&quot;font-size: 24px;&quot;&gt;Endereço:&lt;/span&gt;" style="text;html=1;align=center;verticalAlign=middle;whiteSpace=wrap;rounded=0;" vertex="1" parent="1">
          <mxGeometry x="-4802" y="-4194" width="60" height="40" as="geometry" />
        </mxCell>
        <mxCell id="YzzwRAZCWaj9JnVzKXwe-25" value="" style="rounded=1;whiteSpace=wrap;html=1;" vertex="1" parent="1">
          <mxGeometry x="-4709.5" y="-4194" width="390" height="35" as="geometry" />
        </mxCell>
        <mxCell id="YzzwRAZCWaj9JnVzKXwe-26" value="&lt;span style=&quot;font-size: 24px;&quot;&gt;Data de nascimento:&lt;/span&gt;" style="text;html=1;align=center;verticalAlign=middle;whiteSpace=wrap;rounded=0;" vertex="1" parent="1">
          <mxGeometry x="-4832" y="-4402.5" width="230" height="40" as="geometry" />
        </mxCell>
        <mxCell id="YzzwRAZCWaj9JnVzKXwe-27" value="" style="rounded=1;whiteSpace=wrap;html=1;align=left;" vertex="1" parent="1">
          <mxGeometry x="-4732" y="-4330" width="307.5" height="35" as="geometry" />
        </mxCell>
        <mxCell id="YzzwRAZCWaj9JnVzKXwe-28" value="" style="rounded=1;whiteSpace=wrap;html=1;strokeWidth=22;fillColor=#e1d5e7;strokeColor=#000000;" vertex="1" parent="1">
          <mxGeometry x="-4052" y="-4780" width="1610" height="1260" as="geometry" />
        </mxCell>
        <mxCell id="YzzwRAZCWaj9JnVzKXwe-29" value="&lt;font style=&quot;font-size: 24px;&quot;&gt;Nome:&lt;/font&gt;" style="text;html=1;align=center;verticalAlign=middle;whiteSpace=wrap;rounded=0;" vertex="1" parent="1">
          <mxGeometry x="-3912" y="-4550" width="60" height="40" as="geometry" />
        </mxCell>
        <mxCell id="YzzwRAZCWaj9JnVzKXwe-30" value="&lt;font style=&quot;font-size: 24px;&quot;&gt;00/00/0000&lt;/font&gt;" style="rounded=1;whiteSpace=wrap;html=1;align=left;" vertex="1" parent="1">
          <mxGeometry x="-3670" y="-4480" width="240" height="35" as="geometry" />
        </mxCell>
        <mxCell id="YzzwRAZCWaj9JnVzKXwe-31" value="&lt;font style=&quot;font-size: 24px;&quot;&gt;CPF:&lt;/font&gt;" style="text;html=1;align=center;verticalAlign=middle;whiteSpace=wrap;rounded=0;" vertex="1" parent="1">
          <mxGeometry x="-3912" y="-4412.5" width="60" height="40" as="geometry" />
        </mxCell>
        <mxCell id="YzzwRAZCWaj9JnVzKXwe-32" value="&lt;font style=&quot;font-size: 24px;&quot;&gt;Número:&lt;/font&gt;" style="text;html=1;align=center;verticalAlign=middle;whiteSpace=wrap;rounded=0;" vertex="1" parent="1">
          <mxGeometry x="-3892" y="-4342.5" width="60" height="40" as="geometry" />
        </mxCell>
        <mxCell id="YzzwRAZCWaj9JnVzKXwe-33" value="&lt;font style=&quot;font-size: 24px;&quot;&gt;&amp;nbsp;(&amp;nbsp; )&lt;/font&gt;" style="rounded=1;whiteSpace=wrap;html=1;align=left;" vertex="1" parent="1">
          <mxGeometry x="-3807.5" y="-4340" width="240" height="35" as="geometry" />
        </mxCell>
        <mxCell id="YzzwRAZCWaj9JnVzKXwe-34" value="&lt;span style=&quot;font-size: 24px;&quot;&gt;Email:&lt;/span&gt;" style="text;html=1;align=center;verticalAlign=middle;whiteSpace=wrap;rounded=0;" vertex="1" parent="1">
          <mxGeometry x="-3902" y="-4210" width="60" height="40" as="geometry" />
        </mxCell>
        <mxCell id="YzzwRAZCWaj9JnVzKXwe-35" value="&lt;span style=&quot;font-size: 24px;&quot;&gt;Endereço:&lt;/span&gt;" style="text;html=1;align=center;verticalAlign=middle;whiteSpace=wrap;rounded=0;" vertex="1" parent="1">
          <mxGeometry x="-3882" y="-4274" width="60" height="40" as="geometry" />
        </mxCell>
        <mxCell id="YzzwRAZCWaj9JnVzKXwe-36" value="&lt;span style=&quot;font-size: 24px;&quot;&gt;Data de nascimento:&lt;/span&gt;" style="text;html=1;align=center;verticalAlign=middle;whiteSpace=wrap;rounded=0;" vertex="1" parent="1">
          <mxGeometry x="-3920" y="-4482.5" width="240" height="40" as="geometry" />
        </mxCell>
        <mxCell id="YzzwRAZCWaj9JnVzKXwe-37" value="" style="rounded=1;whiteSpace=wrap;html=1;align=left;" vertex="1" parent="1">
          <mxGeometry x="-3807.5" y="-4410" width="307.5" height="35" as="geometry" />
        </mxCell>
        <mxCell id="YzzwRAZCWaj9JnVzKXwe-38" value="&lt;font style=&quot;font-size: 24px;&quot;&gt;Confirme seus dados&lt;/font&gt;" style="rounded=1;whiteSpace=wrap;html=1;fillColor=#dae8fc;strokeColor=#6c8ebf;" vertex="1" parent="1">
          <mxGeometry x="-4675" y="-3860" width="300" height="60" as="geometry" />
        </mxCell>
        <mxCell id="YzzwRAZCWaj9JnVzKXwe-39" value="" style="rounded=1;whiteSpace=wrap;html=1;" vertex="1" parent="1">
          <mxGeometry x="-3807.5" y="-4205" width="490" height="35" as="geometry" />
        </mxCell>
        <mxCell id="YzzwRAZCWaj9JnVzKXwe-40" value="" style="rounded=1;whiteSpace=wrap;html=1;" vertex="1" parent="1">
          <mxGeometry x="-3792" y="-4271.5" width="390" height="35" as="geometry" />
        </mxCell>
        <mxCell id="YzzwRAZCWaj9JnVzKXwe-41" value="" style="rounded=1;whiteSpace=wrap;html=1;" vertex="1" parent="1">
          <mxGeometry x="-3807.5" y="-4547.5" width="490" height="35" as="geometry" />
        </mxCell>
        <mxCell id="YzzwRAZCWaj9JnVzKXwe-42" value="" style="rounded=1;whiteSpace=wrap;html=1;rotation=90;fillColor=#000000;" vertex="1" parent="1">
          <mxGeometry x="-5210" y="-2797" width="1290" height="670" as="geometry" />
        </mxCell>
        <mxCell id="YzzwRAZCWaj9JnVzKXwe-43" value="" style="rounded=1;whiteSpace=wrap;html=1;rotation=90;fillColor=#e1d5e7;strokeColor=#9673a6;" vertex="1" parent="1">
          <mxGeometry x="-5166" y="-2796" width="1203" height="650" as="geometry" />
        </mxCell>
        <mxCell id="YzzwRAZCWaj9JnVzKXwe-44" value="&lt;span style=&quot;font-size: 36px;&quot;&gt;III&lt;/span&gt;" style="text;html=1;align=center;verticalAlign=middle;resizable=0;points=[];autosize=1;strokeColor=none;fillColor=none;" vertex="1" parent="1">
          <mxGeometry x="-4775" y="-1927" width="50" height="60" as="geometry" />
        </mxCell>
        <mxCell id="YzzwRAZCWaj9JnVzKXwe-45" value="" style="endArrow=none;html=1;rounded=0;exitX=0.956;exitY=0.992;exitDx=0;exitDy=0;exitPerimeter=0;entryX=0.957;entryY=0.011;entryDx=0;entryDy=0;entryPerimeter=0;strokeWidth=4;" edge="1" parent="1" source="YzzwRAZCWaj9JnVzKXwe-43" target="YzzwRAZCWaj9JnVzKXwe-43">
          <mxGeometry width="50" height="50" relative="1" as="geometry">
            <mxPoint x="-4385" y="-2307" as="sourcePoint" />
            <mxPoint x="-4255" y="-1922" as="targetPoint" />
            <Array as="points" />
          </mxGeometry>
        </mxCell>
        <mxCell id="YzzwRAZCWaj9JnVzKXwe-46" value="" style="rounded=1;whiteSpace=wrap;html=1;strokeWidth=3;fillColor=#e1d5e7;strokeColor=#0D0D0D;" vertex="1" parent="1">
          <mxGeometry x="-4579.5" y="-1912" width="30" height="30" as="geometry" />
        </mxCell>
        <mxCell id="YzzwRAZCWaj9JnVzKXwe-47" value="" style="triangle;whiteSpace=wrap;html=1;strokeWidth=3;fillColor=#e1d5e7;strokeColor=#000000;" vertex="1" parent="1">
          <mxGeometry x="-4375" y="-1912" width="20" height="30" as="geometry" />
        </mxCell>
        <mxCell id="YzzwRAZCWaj9JnVzKXwe-48" value="" style="endArrow=none;html=1;rounded=0;exitX=0.028;exitY=0.972;exitDx=0;exitDy=0;exitPerimeter=0;entryX=0.026;entryY=0.031;entryDx=0;entryDy=0;entryPerimeter=0;strokeWidth=3;" edge="1" parent="1" source="YzzwRAZCWaj9JnVzKXwe-43" target="YzzwRAZCWaj9JnVzKXwe-43">
          <mxGeometry width="50" height="50" relative="1" as="geometry">
            <mxPoint x="-4858.949999999999" y="-3037" as="sourcePoint" />
            <mxPoint x="-4270.049999999999" y="-3033.3909999999996" as="targetPoint" />
          </mxGeometry>
        </mxCell>
        <mxCell id="YzzwRAZCWaj9JnVzKXwe-49" value="&lt;font style=&quot;font-size: 18px;&quot;&gt;09:09&lt;/font&gt;" style="text;html=1;align=center;verticalAlign=middle;whiteSpace=wrap;rounded=1;strokeWidth=22;fillColor=default;perimeterSpacing=0;shadow=0;glass=0;" vertex="1" parent="1">
          <mxGeometry x="-4825" y="-3063" width="60" height="20" as="geometry" />
        </mxCell>
        <mxCell id="YzzwRAZCWaj9JnVzKXwe-50" value="" style="html=1;verticalLabelPosition=bottom;align=center;labelBackgroundColor=#ffffff;verticalAlign=top;strokeWidth=2;strokeColor=#000000;shadow=0;dashed=0;shape=mxgraph.ios7.icons.battery;rotation=-90;" vertex="1" parent="1">
          <mxGeometry x="-4335" y="-3063" width="20" height="16" as="geometry" />
        </mxCell>
        <mxCell id="YzzwRAZCWaj9JnVzKXwe-51" value="&lt;p style=&quot;line-height: 230%;&quot;&gt;&lt;font style=&quot;font-size: 15px;&quot;&gt;50&lt;/font&gt;&lt;font style=&quot;font-size: 15px;&quot;&gt;%&lt;/font&gt;&lt;/p&gt;" style="text;html=1;align=center;verticalAlign=middle;resizable=0;points=[];autosize=1;strokeColor=none;fillColor=none;strokeWidth=4;" vertex="1" parent="1">
          <mxGeometry x="-4385" y="-3090" width="50" height="70" as="geometry" />
        </mxCell>
        <mxCell id="YzzwRAZCWaj9JnVzKXwe-52" value="" style="rounded=0;whiteSpace=wrap;html=1;rotation=90;strokeWidth=1;fillColor=#1B1D1F;strokeColor=#000000;" vertex="1" parent="1">
          <mxGeometry x="-4255" y="-2887" width="60" height="10" as="geometry" />
        </mxCell>
        <mxCell id="YzzwRAZCWaj9JnVzKXwe-53" value="" style="rounded=0;whiteSpace=wrap;html=1;rotation=90;strokeWidth=1;fillColor=#1B1D1F;strokeColor=#000000;" vertex="1" parent="1">
          <mxGeometry x="-4255" y="-2807" width="60" height="10" as="geometry" />
        </mxCell>
        <mxCell id="YzzwRAZCWaj9JnVzKXwe-54" value="" style="rounded=0;whiteSpace=wrap;html=1;rotation=90;strokeWidth=1;fillColor=#1B1D1F;strokeColor=#000000;" vertex="1" parent="1">
          <mxGeometry x="-4255" y="-2667" width="60" height="10" as="geometry" />
        </mxCell>
        <mxCell id="YzzwRAZCWaj9JnVzKXwe-55" value="&lt;font style=&quot;font-size: 48px;&quot;&gt;Cadastro:&lt;/font&gt;" style="text;html=1;align=center;verticalAlign=middle;whiteSpace=wrap;rounded=0;" vertex="1" parent="1">
          <mxGeometry x="-4767" y="-2957" width="404.5" height="30" as="geometry" />
        </mxCell>
        <mxCell id="YzzwRAZCWaj9JnVzKXwe-56" value="&lt;font style=&quot;font-size: 24px;&quot;&gt;Nome:&lt;/font&gt;" style="text;html=1;align=center;verticalAlign=middle;whiteSpace=wrap;rounded=0;" vertex="1" parent="1">
          <mxGeometry x="-4865" y="-2812" width="60" height="40" as="geometry" />
        </mxCell>
        <mxCell id="YzzwRAZCWaj9JnVzKXwe-57" value="" style="rounded=1;whiteSpace=wrap;html=1;" vertex="1" parent="1">
          <mxGeometry x="-4775" y="-2809.5" width="490" height="35" as="geometry" />
        </mxCell>
        <mxCell id="YzzwRAZCWaj9JnVzKXwe-58" value="&lt;font style=&quot;font-size: 24px;&quot;&gt;00/00/0000&lt;/font&gt;" style="rounded=1;whiteSpace=wrap;html=1;align=left;" vertex="1" parent="1">
          <mxGeometry x="-4635" y="-2737" width="240" height="35" as="geometry" />
        </mxCell>
        <mxCell id="YzzwRAZCWaj9JnVzKXwe-59" value="&lt;font style=&quot;font-size: 24px;&quot;&gt;CPF:&lt;/font&gt;" style="text;html=1;align=center;verticalAlign=middle;whiteSpace=wrap;rounded=0;" vertex="1" parent="1">
          <mxGeometry x="-4875" y="-2669.5" width="60" height="40" as="geometry" />
        </mxCell>
        <mxCell id="YzzwRAZCWaj9JnVzKXwe-60" value="&lt;font style=&quot;font-size: 24px;&quot;&gt;Número:&lt;/font&gt;" style="text;html=1;align=center;verticalAlign=middle;whiteSpace=wrap;rounded=0;" vertex="1" parent="1">
          <mxGeometry x="-4857" y="-2599.5" width="60" height="40" as="geometry" />
        </mxCell>
        <mxCell id="YzzwRAZCWaj9JnVzKXwe-61" value="&lt;font style=&quot;font-size: 24px;&quot;&gt;&amp;nbsp;(&amp;nbsp; )&lt;/font&gt;" style="rounded=1;whiteSpace=wrap;html=1;align=left;" vertex="1" parent="1">
          <mxGeometry x="-4775" y="-2599.5" width="240" height="35" as="geometry" />
        </mxCell>
        <mxCell id="YzzwRAZCWaj9JnVzKXwe-62" value="&lt;span style=&quot;font-size: 24px;&quot;&gt;Email:&lt;/span&gt;" style="text;html=1;align=center;verticalAlign=middle;whiteSpace=wrap;rounded=0;" vertex="1" parent="1">
          <mxGeometry x="-4865" y="-2467" width="60" height="40" as="geometry" />
        </mxCell>
        <mxCell id="YzzwRAZCWaj9JnVzKXwe-63" value="" style="rounded=1;whiteSpace=wrap;html=1;" vertex="1" parent="1">
          <mxGeometry x="-4775" y="-2467" width="490" height="35" as="geometry" />
        </mxCell>
        <mxCell id="YzzwRAZCWaj9JnVzKXwe-64" value="&lt;span style=&quot;font-size: 24px;&quot;&gt;Endereço:&lt;/span&gt;" style="text;html=1;align=center;verticalAlign=middle;whiteSpace=wrap;rounded=0;" vertex="1" parent="1">
          <mxGeometry x="-4845" y="-2531" width="60" height="40" as="geometry" />
        </mxCell>
        <mxCell id="YzzwRAZCWaj9JnVzKXwe-65" value="" style="rounded=1;whiteSpace=wrap;html=1;" vertex="1" parent="1">
          <mxGeometry x="-4752.5" y="-2531" width="390" height="35" as="geometry" />
        </mxCell>
        <mxCell id="YzzwRAZCWaj9JnVzKXwe-66" value="&lt;span style=&quot;font-size: 24px;&quot;&gt;Data de nascimento:&lt;/span&gt;" style="text;html=1;align=center;verticalAlign=middle;whiteSpace=wrap;rounded=0;" vertex="1" parent="1">
          <mxGeometry x="-4875" y="-2739.5" width="230" height="40" as="geometry" />
        </mxCell>
        <mxCell id="YzzwRAZCWaj9JnVzKXwe-67" value="" style="rounded=1;whiteSpace=wrap;html=1;align=left;" vertex="1" parent="1">
          <mxGeometry x="-4775" y="-2667" width="307.5" height="35" as="geometry" />
        </mxCell>
        <mxCell id="YzzwRAZCWaj9JnVzKXwe-68" value="&lt;font style=&quot;font-size: 24px;&quot;&gt;Confirme seus dados&lt;/font&gt;" style="rounded=1;whiteSpace=wrap;html=1;fillColor=#dae8fc;strokeColor=#6c8ebf;" vertex="1" parent="1">
          <mxGeometry x="-4728.25" y="-2127" width="300" height="60" as="geometry" />
        </mxCell>
        <mxCell id="YzzwRAZCWaj9JnVzKXwe-69" value="&lt;font color=&quot;#cc0000&quot; style=&quot;font-size: 18px;&quot;&gt;Data de nascimento errada&lt;/font&gt;" style="text;html=1;align=center;verticalAlign=middle;resizable=0;points=[];autosize=1;strokeColor=none;fillColor=none;" vertex="1" parent="1">
          <mxGeometry x="-4642" y="-2707" width="240" height="40" as="geometry" />
        </mxCell>
        <mxCell id="YzzwRAZCWaj9JnVzKXwe-70" value="&lt;font color=&quot;#cc0000&quot; style=&quot;font-size: 18px;&quot;&gt;CPF errado&lt;/font&gt;" style="text;html=1;align=center;verticalAlign=middle;resizable=0;points=[];autosize=1;strokeColor=none;fillColor=none;" vertex="1" parent="1">
          <mxGeometry x="-4782" y="-2637" width="120" height="40" as="geometry" />
        </mxCell>
        <mxCell id="YzzwRAZCWaj9JnVzKXwe-71" value="&lt;font color=&quot;#cc0000&quot;&gt;&lt;span style=&quot;font-size: 18px;&quot;&gt;Email inexistente&lt;/span&gt;&lt;/font&gt;" style="text;html=1;align=center;verticalAlign=middle;resizable=0;points=[];autosize=1;strokeColor=none;fillColor=none;" vertex="1" parent="1">
          <mxGeometry x="-4782" y="-2432" width="160" height="40" as="geometry" />
        </mxCell>
        <mxCell id="YzzwRAZCWaj9JnVzKXwe-72" value="&lt;font color=&quot;#cc0000&quot;&gt;&lt;span style=&quot;font-size: 18px;&quot;&gt;Revise seus dados acima&lt;/span&gt;&lt;/font&gt;" style="text;html=1;align=center;verticalAlign=middle;resizable=0;points=[];autosize=1;strokeColor=none;fillColor=none;" vertex="1" parent="1">
          <mxGeometry x="-4695.25" y="-2060" width="230" height="40" as="geometry" />
        </mxCell>
        <mxCell id="YzzwRAZCWaj9JnVzKXwe-73" value="&lt;font style=&quot;font-size: 48px;&quot;&gt;Cadastre:&lt;/font&gt;" style="text;html=1;align=center;verticalAlign=middle;whiteSpace=wrap;rounded=0;" vertex="1" parent="1">
          <mxGeometry x="-3449.25" y="-4706" width="404.5" height="30" as="geometry" />
        </mxCell>
        <mxCell id="YzzwRAZCWaj9JnVzKXwe-74" value="&lt;font style=&quot;font-size: 24px;&quot;&gt;Confirme seus dados&lt;/font&gt;" style="rounded=1;whiteSpace=wrap;html=1;fillColor=#dae8fc;strokeColor=#6c8ebf;" vertex="1" parent="1">
          <mxGeometry x="-3412" y="-3880" width="300" height="60" as="geometry" />
        </mxCell>
        <mxCell id="YzzwRAZCWaj9JnVzKXwe-75" value="" style="rounded=1;whiteSpace=wrap;html=1;strokeWidth=22;fillColor=#e1d5e7;strokeColor=#000000;" vertex="1" parent="1">
          <mxGeometry x="-4052" y="-3070" width="1610" height="1260" as="geometry" />
        </mxCell>
        <mxCell id="YzzwRAZCWaj9JnVzKXwe-76" value="&lt;font style=&quot;font-size: 24px;&quot;&gt;Nome:&lt;/font&gt;" style="text;html=1;align=center;verticalAlign=middle;whiteSpace=wrap;rounded=0;" vertex="1" parent="1">
          <mxGeometry x="-3912" y="-2840" width="60" height="40" as="geometry" />
        </mxCell>
        <mxCell id="YzzwRAZCWaj9JnVzKXwe-77" value="&lt;font style=&quot;font-size: 24px;&quot;&gt;00/00/0000&lt;/font&gt;" style="rounded=1;whiteSpace=wrap;html=1;align=left;" vertex="1" parent="1">
          <mxGeometry x="-3670" y="-2770" width="240" height="35" as="geometry" />
        </mxCell>
        <mxCell id="YzzwRAZCWaj9JnVzKXwe-78" value="&lt;font style=&quot;font-size: 24px;&quot;&gt;CPF:&lt;/font&gt;" style="text;html=1;align=center;verticalAlign=middle;whiteSpace=wrap;rounded=0;" vertex="1" parent="1">
          <mxGeometry x="-3912" y="-2702.5" width="60" height="40" as="geometry" />
        </mxCell>
        <mxCell id="YzzwRAZCWaj9JnVzKXwe-79" value="&lt;font style=&quot;font-size: 24px;&quot;&gt;Número:&lt;/font&gt;" style="text;html=1;align=center;verticalAlign=middle;whiteSpace=wrap;rounded=0;" vertex="1" parent="1">
          <mxGeometry x="-3892" y="-2632.5" width="60" height="40" as="geometry" />
        </mxCell>
        <mxCell id="YzzwRAZCWaj9JnVzKXwe-80" value="&lt;font style=&quot;font-size: 24px;&quot;&gt;&amp;nbsp;(&amp;nbsp; )&lt;/font&gt;" style="rounded=1;whiteSpace=wrap;html=1;align=left;" vertex="1" parent="1">
          <mxGeometry x="-3807.5" y="-2630" width="240" height="35" as="geometry" />
        </mxCell>
        <mxCell id="YzzwRAZCWaj9JnVzKXwe-81" value="&lt;span style=&quot;font-size: 24px;&quot;&gt;Email:&lt;/span&gt;" style="text;html=1;align=center;verticalAlign=middle;whiteSpace=wrap;rounded=0;" vertex="1" parent="1">
          <mxGeometry x="-3902" y="-2500" width="60" height="40" as="geometry" />
        </mxCell>
        <mxCell id="YzzwRAZCWaj9JnVzKXwe-82" value="&lt;span style=&quot;font-size: 24px;&quot;&gt;Endereço:&lt;/span&gt;" style="text;html=1;align=center;verticalAlign=middle;whiteSpace=wrap;rounded=0;" vertex="1" parent="1">
          <mxGeometry x="-3882" y="-2564" width="60" height="40" as="geometry" />
        </mxCell>
        <mxCell id="YzzwRAZCWaj9JnVzKXwe-83" value="&lt;span style=&quot;font-size: 24px;&quot;&gt;Data de nascimento:&lt;/span&gt;" style="text;html=1;align=center;verticalAlign=middle;whiteSpace=wrap;rounded=0;" vertex="1" parent="1">
          <mxGeometry x="-3920" y="-2772.5" width="240" height="40" as="geometry" />
        </mxCell>
        <mxCell id="YzzwRAZCWaj9JnVzKXwe-84" value="" style="rounded=1;whiteSpace=wrap;html=1;align=left;" vertex="1" parent="1">
          <mxGeometry x="-3807.5" y="-2700" width="307.5" height="35" as="geometry" />
        </mxCell>
        <mxCell id="YzzwRAZCWaj9JnVzKXwe-85" value="" style="rounded=1;whiteSpace=wrap;html=1;" vertex="1" parent="1">
          <mxGeometry x="-3807.5" y="-2495" width="490" height="35" as="geometry" />
        </mxCell>
        <mxCell id="YzzwRAZCWaj9JnVzKXwe-86" value="" style="rounded=1;whiteSpace=wrap;html=1;" vertex="1" parent="1">
          <mxGeometry x="-3792" y="-2561.5" width="390" height="35" as="geometry" />
        </mxCell>
        <mxCell id="YzzwRAZCWaj9JnVzKXwe-87" value="" style="rounded=1;whiteSpace=wrap;html=1;" vertex="1" parent="1">
          <mxGeometry x="-3807.5" y="-2837.5" width="490" height="35" as="geometry" />
        </mxCell>
        <mxCell id="YzzwRAZCWaj9JnVzKXwe-88" value="&lt;span style=&quot;font-size: 48px;&quot;&gt;Cadastrar:&lt;/span&gt;" style="text;html=1;align=center;verticalAlign=middle;whiteSpace=wrap;rounded=0;" vertex="1" parent="1">
          <mxGeometry x="-3449.25" y="-2996" width="404.5" height="30" as="geometry" />
        </mxCell>
        <mxCell id="YzzwRAZCWaj9JnVzKXwe-89" value="&lt;font style=&quot;font-size: 24px;&quot;&gt;Confirme seus dados&lt;/font&gt;" style="rounded=1;whiteSpace=wrap;html=1;fillColor=#dae8fc;strokeColor=#6c8ebf;" vertex="1" parent="1">
          <mxGeometry x="-3412" y="-2050" width="300" height="60" as="geometry" />
        </mxCell>
        <mxCell id="YzzwRAZCWaj9JnVzKXwe-90" value="&lt;font color=&quot;#cc0000&quot; style=&quot;font-size: 18px;&quot;&gt;Data de nascimento errada&lt;/font&gt;" style="text;html=1;align=center;verticalAlign=middle;resizable=0;points=[];autosize=1;strokeColor=none;fillColor=none;" vertex="1" parent="1">
          <mxGeometry x="-3670" y="-2737" width="240" height="40" as="geometry" />
        </mxCell>
        <mxCell id="YzzwRAZCWaj9JnVzKXwe-91" value="&lt;font color=&quot;#cc0000&quot; style=&quot;font-size: 18px;&quot;&gt;CPF errado&lt;/font&gt;" style="text;html=1;align=center;verticalAlign=middle;resizable=0;points=[];autosize=1;strokeColor=none;fillColor=none;" vertex="1" parent="1">
          <mxGeometry x="-3807.5" y="-2667" width="120" height="40" as="geometry" />
        </mxCell>
        <mxCell id="YzzwRAZCWaj9JnVzKXwe-92" value="&lt;font color=&quot;#cc0000&quot;&gt;&lt;span style=&quot;font-size: 18px;&quot;&gt;Email inexistente&lt;/span&gt;&lt;/font&gt;" style="text;html=1;align=center;verticalAlign=middle;resizable=0;points=[];autosize=1;strokeColor=none;fillColor=none;" vertex="1" parent="1">
          <mxGeometry x="-3812" y="-2460" width="160" height="40" as="geometry" />
        </mxCell>
        <mxCell id="YzzwRAZCWaj9JnVzKXwe-93" value="&lt;font color=&quot;#cc0000&quot;&gt;&lt;span style=&quot;font-size: 18px;&quot;&gt;Revise seus dados acima&lt;/span&gt;&lt;/font&gt;" style="text;html=1;align=center;verticalAlign=middle;resizable=0;points=[];autosize=1;strokeColor=none;fillColor=none;" vertex="1" parent="1">
          <mxGeometry x="-3377" y="-1990" width="230" height="40" as="geometry" />
        </mxCell>
        <mxCell id="YzzwRAZCWaj9JnVzKXwe-95" value="&lt;font style=&quot;font-size: 135px;&quot;&gt;&lt;b&gt;&lt;i&gt;Cliente&lt;/i&gt;&lt;/b&gt;&lt;/font&gt;" style="text;html=1;align=center;verticalAlign=middle;resizable=0;points=[];autosize=1;strokeColor=none;fillColor=none;" vertex="1" parent="1">
          <mxGeometry x="-4337" y="-3345" width="470" height="180" as="geometry" />
        </mxCell>
        <mxCell id="YzzwRAZCWaj9JnVzKXwe-398" value="" style="rounded=1;whiteSpace=wrap;html=1;fillColor=#dae8fc;strokeColor=#6c8ebf;" vertex="1" parent="1">
          <mxGeometry x="-1920" y="-5040" width="2710" height="3491.5" as="geometry" />
        </mxCell>
        <mxCell id="YzzwRAZCWaj9JnVzKXwe-399" value="" style="rounded=1;whiteSpace=wrap;html=1;rotation=90;fillColor=#000000;" vertex="1" parent="1">
          <mxGeometry x="-2070" y="-4530" width="1290" height="670" as="geometry" />
        </mxCell>
        <mxCell id="YzzwRAZCWaj9JnVzKXwe-400" value="" style="rounded=1;whiteSpace=wrap;html=1;rotation=90;fillColor=#e1d5e7;strokeColor=#9673a6;" vertex="1" parent="1">
          <mxGeometry x="-2026" y="-4529" width="1203" height="650" as="geometry" />
        </mxCell>
        <mxCell id="YzzwRAZCWaj9JnVzKXwe-401" value="&lt;span style=&quot;font-size: 36px;&quot;&gt;III&lt;/span&gt;" style="text;html=1;align=center;verticalAlign=middle;resizable=0;points=[];autosize=1;strokeColor=none;fillColor=none;" vertex="1" parent="1">
          <mxGeometry x="-1635" y="-3660" width="50" height="60" as="geometry" />
        </mxCell>
        <mxCell id="YzzwRAZCWaj9JnVzKXwe-402" value="" style="endArrow=none;html=1;rounded=0;exitX=0.956;exitY=0.992;exitDx=0;exitDy=0;exitPerimeter=0;entryX=0.957;entryY=0.011;entryDx=0;entryDy=0;entryPerimeter=0;strokeWidth=4;" edge="1" parent="1" source="YzzwRAZCWaj9JnVzKXwe-400" target="YzzwRAZCWaj9JnVzKXwe-400">
          <mxGeometry width="50" height="50" relative="1" as="geometry">
            <mxPoint x="-1245" y="-4040" as="sourcePoint" />
            <mxPoint x="-1115" y="-3655" as="targetPoint" />
            <Array as="points" />
          </mxGeometry>
        </mxCell>
        <mxCell id="YzzwRAZCWaj9JnVzKXwe-403" value="" style="rounded=1;whiteSpace=wrap;html=1;strokeWidth=3;" vertex="1" parent="1">
          <mxGeometry x="-1439.5" y="-3645" width="30" height="30" as="geometry" />
        </mxCell>
        <mxCell id="YzzwRAZCWaj9JnVzKXwe-404" value="" style="triangle;whiteSpace=wrap;html=1;strokeWidth=3;" vertex="1" parent="1">
          <mxGeometry x="-1235" y="-3645" width="20" height="30" as="geometry" />
        </mxCell>
        <mxCell id="YzzwRAZCWaj9JnVzKXwe-405" value="" style="endArrow=none;html=1;rounded=0;exitX=0.028;exitY=0.972;exitDx=0;exitDy=0;exitPerimeter=0;entryX=0.026;entryY=0.031;entryDx=0;entryDy=0;entryPerimeter=0;strokeWidth=3;" edge="1" parent="1" source="YzzwRAZCWaj9JnVzKXwe-400" target="YzzwRAZCWaj9JnVzKXwe-400">
          <mxGeometry width="50" height="50" relative="1" as="geometry">
            <mxPoint x="-1718.9500000000007" y="-4770" as="sourcePoint" />
            <mxPoint x="-1130.0499999999993" y="-4766.391" as="targetPoint" />
          </mxGeometry>
        </mxCell>
        <mxCell id="YzzwRAZCWaj9JnVzKXwe-406" value="&lt;font style=&quot;font-size: 18px;&quot;&gt;09:09&lt;/font&gt;" style="text;html=1;align=center;verticalAlign=middle;whiteSpace=wrap;rounded=1;strokeWidth=22;fillColor=default;perimeterSpacing=0;shadow=0;glass=0;" vertex="1" parent="1">
          <mxGeometry x="-1685" y="-4796" width="60" height="20" as="geometry" />
        </mxCell>
        <mxCell id="YzzwRAZCWaj9JnVzKXwe-407" value="" style="html=1;verticalLabelPosition=bottom;align=center;labelBackgroundColor=#ffffff;verticalAlign=top;strokeWidth=2;strokeColor=#000000;shadow=0;dashed=0;shape=mxgraph.ios7.icons.battery;rotation=-90;" vertex="1" parent="1">
          <mxGeometry x="-1195" y="-4796" width="20" height="16" as="geometry" />
        </mxCell>
        <mxCell id="YzzwRAZCWaj9JnVzKXwe-408" value="&lt;p style=&quot;line-height: 230%;&quot;&gt;&lt;font style=&quot;font-size: 15px;&quot;&gt;50&lt;/font&gt;&lt;font style=&quot;font-size: 15px;&quot;&gt;%&lt;/font&gt;&lt;/p&gt;" style="text;html=1;align=center;verticalAlign=middle;resizable=0;points=[];autosize=1;strokeColor=none;fillColor=none;strokeWidth=4;" vertex="1" parent="1">
          <mxGeometry x="-1245" y="-4823" width="50" height="70" as="geometry" />
        </mxCell>
        <mxCell id="YzzwRAZCWaj9JnVzKXwe-409" value="" style="rounded=0;whiteSpace=wrap;html=1;rotation=90;strokeWidth=1;fillColor=#1B1D1F;strokeColor=#000000;" vertex="1" parent="1">
          <mxGeometry x="-1115" y="-4620" width="60" height="10" as="geometry" />
        </mxCell>
        <mxCell id="YzzwRAZCWaj9JnVzKXwe-410" value="" style="rounded=0;whiteSpace=wrap;html=1;rotation=90;strokeWidth=1;fillColor=#1B1D1F;strokeColor=#000000;" vertex="1" parent="1">
          <mxGeometry x="-1115" y="-4540" width="60" height="10" as="geometry" />
        </mxCell>
        <mxCell id="YzzwRAZCWaj9JnVzKXwe-411" value="" style="rounded=0;whiteSpace=wrap;html=1;rotation=90;strokeWidth=1;fillColor=#1B1D1F;strokeColor=#000000;" vertex="1" parent="1">
          <mxGeometry x="-1115" y="-4400" width="60" height="10" as="geometry" />
        </mxCell>
        <mxCell id="YzzwRAZCWaj9JnVzKXwe-412" value="&lt;font style=&quot;font-size: 48px;&quot;&gt;Cadastre o Fornecedor:&lt;/font&gt;" style="text;html=1;align=center;verticalAlign=middle;whiteSpace=wrap;rounded=0;" vertex="1" parent="1">
          <mxGeometry x="-1693.5" y="-4695" width="537" height="30" as="geometry" />
        </mxCell>
        <mxCell id="YzzwRAZCWaj9JnVzKXwe-413" value="&lt;font style=&quot;font-size: 24px;&quot;&gt;Nome:&lt;/font&gt;" style="text;html=1;align=center;verticalAlign=middle;whiteSpace=wrap;rounded=0;" vertex="1" parent="1">
          <mxGeometry x="-1725" y="-4545" width="60" height="40" as="geometry" />
        </mxCell>
        <mxCell id="YzzwRAZCWaj9JnVzKXwe-414" value="" style="rounded=1;whiteSpace=wrap;html=1;" vertex="1" parent="1">
          <mxGeometry x="-1635" y="-4542.5" width="490" height="35" as="geometry" />
        </mxCell>
        <mxCell id="YzzwRAZCWaj9JnVzKXwe-415" value="&lt;font style=&quot;font-size: 24px;&quot;&gt;Número:&lt;/font&gt;" style="text;html=1;align=center;verticalAlign=middle;whiteSpace=wrap;rounded=0;" vertex="1" parent="1">
          <mxGeometry x="-1717" y="-4493.75" width="60" height="40" as="geometry" />
        </mxCell>
        <mxCell id="YzzwRAZCWaj9JnVzKXwe-416" value="&lt;font style=&quot;font-size: 24px;&quot;&gt;&amp;nbsp;(&amp;nbsp; )&lt;/font&gt;" style="rounded=1;whiteSpace=wrap;html=1;align=left;" vertex="1" parent="1">
          <mxGeometry x="-1635" y="-4493.75" width="240" height="35" as="geometry" />
        </mxCell>
        <mxCell id="YzzwRAZCWaj9JnVzKXwe-417" value="&lt;span style=&quot;font-size: 24px;&quot;&gt;Email:&lt;/span&gt;" style="text;html=1;align=center;verticalAlign=middle;whiteSpace=wrap;rounded=0;" vertex="1" parent="1">
          <mxGeometry x="-1725" y="-4361.25" width="60" height="40" as="geometry" />
        </mxCell>
        <mxCell id="YzzwRAZCWaj9JnVzKXwe-418" value="" style="rounded=1;whiteSpace=wrap;html=1;" vertex="1" parent="1">
          <mxGeometry x="-1635" y="-4361.25" width="490" height="35" as="geometry" />
        </mxCell>
        <mxCell id="YzzwRAZCWaj9JnVzKXwe-419" value="&lt;span style=&quot;font-size: 24px;&quot;&gt;Endereço:&lt;/span&gt;" style="text;html=1;align=center;verticalAlign=middle;whiteSpace=wrap;rounded=0;" vertex="1" parent="1">
          <mxGeometry x="-1705" y="-4425.25" width="60" height="40" as="geometry" />
        </mxCell>
        <mxCell id="YzzwRAZCWaj9JnVzKXwe-420" value="" style="rounded=1;whiteSpace=wrap;html=1;" vertex="1" parent="1">
          <mxGeometry x="-1612.5" y="-4425.25" width="390" height="35" as="geometry" />
        </mxCell>
        <mxCell id="YzzwRAZCWaj9JnVzKXwe-421" value="" style="rounded=1;whiteSpace=wrap;html=1;strokeWidth=22;fillColor=#e1d5e7;strokeColor=#000000;" vertex="1" parent="1">
          <mxGeometry x="-955" y="-4850" width="1610" height="1260" as="geometry" />
        </mxCell>
        <mxCell id="YzzwRAZCWaj9JnVzKXwe-422" value="&lt;font style=&quot;font-size: 24px;&quot;&gt;Nome:&lt;/font&gt;" style="text;html=1;align=center;verticalAlign=middle;whiteSpace=wrap;rounded=0;" vertex="1" parent="1">
          <mxGeometry x="-815" y="-4620" width="60" height="40" as="geometry" />
        </mxCell>
        <mxCell id="YzzwRAZCWaj9JnVzKXwe-423" value="&lt;font style=&quot;font-size: 24px;&quot;&gt;Número:&lt;/font&gt;" style="text;html=1;align=center;verticalAlign=middle;whiteSpace=wrap;rounded=0;" vertex="1" parent="1">
          <mxGeometry x="-805" y="-4565" width="60" height="40" as="geometry" />
        </mxCell>
        <mxCell id="YzzwRAZCWaj9JnVzKXwe-424" value="&lt;font style=&quot;font-size: 24px;&quot;&gt;&amp;nbsp;(&amp;nbsp; )&lt;/font&gt;" style="rounded=1;whiteSpace=wrap;html=1;align=left;" vertex="1" parent="1">
          <mxGeometry x="-720.5" y="-4562.5" width="240" height="35" as="geometry" />
        </mxCell>
        <mxCell id="YzzwRAZCWaj9JnVzKXwe-425" value="&lt;span style=&quot;font-size: 24px;&quot;&gt;Email:&lt;/span&gt;" style="text;html=1;align=center;verticalAlign=middle;whiteSpace=wrap;rounded=0;" vertex="1" parent="1">
          <mxGeometry x="-815" y="-4432.5" width="60" height="40" as="geometry" />
        </mxCell>
        <mxCell id="YzzwRAZCWaj9JnVzKXwe-426" value="&lt;span style=&quot;font-size: 24px;&quot;&gt;Endereço:&lt;/span&gt;" style="text;html=1;align=center;verticalAlign=middle;whiteSpace=wrap;rounded=0;" vertex="1" parent="1">
          <mxGeometry x="-795" y="-4496.5" width="60" height="40" as="geometry" />
        </mxCell>
        <mxCell id="YzzwRAZCWaj9JnVzKXwe-427" value="&lt;font style=&quot;font-size: 24px;&quot;&gt;Confirme seus dados&lt;/font&gt;" style="rounded=1;whiteSpace=wrap;html=1;fillColor=#dae8fc;strokeColor=#6c8ebf;" vertex="1" parent="1">
          <mxGeometry x="-1585" y="-3825" width="300" height="60" as="geometry" />
        </mxCell>
        <mxCell id="YzzwRAZCWaj9JnVzKXwe-428" value="" style="rounded=1;whiteSpace=wrap;html=1;" vertex="1" parent="1">
          <mxGeometry x="-720.5" y="-4427.5" width="490" height="35" as="geometry" />
        </mxCell>
        <mxCell id="YzzwRAZCWaj9JnVzKXwe-429" value="" style="rounded=1;whiteSpace=wrap;html=1;" vertex="1" parent="1">
          <mxGeometry x="-705" y="-4494" width="390" height="35" as="geometry" />
        </mxCell>
        <mxCell id="YzzwRAZCWaj9JnVzKXwe-430" value="" style="rounded=1;whiteSpace=wrap;html=1;" vertex="1" parent="1">
          <mxGeometry x="-710.5" y="-4617.5" width="490" height="35" as="geometry" />
        </mxCell>
        <mxCell id="YzzwRAZCWaj9JnVzKXwe-431" value="&lt;span style=&quot;font-size: 48px;&quot;&gt;Cadastre o Fornecedor:&lt;/span&gt;" style="text;html=1;align=center;verticalAlign=middle;whiteSpace=wrap;rounded=0;" vertex="1" parent="1">
          <mxGeometry x="-436.1199999999999" y="-4778" width="562.25" height="30" as="geometry" />
        </mxCell>
        <mxCell id="YzzwRAZCWaj9JnVzKXwe-432" value="&lt;font style=&quot;font-size: 24px;&quot;&gt;Confirme seus dados&lt;/font&gt;" style="rounded=1;whiteSpace=wrap;html=1;fillColor=#dae8fc;strokeColor=#6c8ebf;" vertex="1" parent="1">
          <mxGeometry x="-304.9899999999998" y="-3825" width="300" height="60" as="geometry" />
        </mxCell>
        <mxCell id="YzzwRAZCWaj9JnVzKXwe-433" value="" style="rounded=1;whiteSpace=wrap;html=1;rotation=90;fillColor=#000000;" vertex="1" parent="1">
          <mxGeometry x="-2060" y="-2838" width="1290" height="670" as="geometry" />
        </mxCell>
        <mxCell id="YzzwRAZCWaj9JnVzKXwe-434" value="" style="rounded=1;whiteSpace=wrap;html=1;rotation=90;fillColor=#e1d5e7;strokeColor=#9673a6;" vertex="1" parent="1">
          <mxGeometry x="-2016" y="-2837" width="1203" height="650" as="geometry" />
        </mxCell>
        <mxCell id="YzzwRAZCWaj9JnVzKXwe-435" value="&lt;span style=&quot;font-size: 36px;&quot;&gt;III&lt;/span&gt;" style="text;html=1;align=center;verticalAlign=middle;resizable=0;points=[];autosize=1;strokeColor=none;fillColor=none;" vertex="1" parent="1">
          <mxGeometry x="-1625" y="-1968" width="50" height="60" as="geometry" />
        </mxCell>
        <mxCell id="YzzwRAZCWaj9JnVzKXwe-436" value="" style="endArrow=none;html=1;rounded=0;exitX=0.956;exitY=0.992;exitDx=0;exitDy=0;exitPerimeter=0;entryX=0.957;entryY=0.011;entryDx=0;entryDy=0;entryPerimeter=0;strokeWidth=4;" edge="1" parent="1" source="YzzwRAZCWaj9JnVzKXwe-434" target="YzzwRAZCWaj9JnVzKXwe-434">
          <mxGeometry width="50" height="50" relative="1" as="geometry">
            <mxPoint x="-1235" y="-2348" as="sourcePoint" />
            <mxPoint x="-1105" y="-1963" as="targetPoint" />
            <Array as="points" />
          </mxGeometry>
        </mxCell>
        <mxCell id="YzzwRAZCWaj9JnVzKXwe-437" value="" style="rounded=1;whiteSpace=wrap;html=1;strokeWidth=3;" vertex="1" parent="1">
          <mxGeometry x="-1429.5" y="-1953" width="30" height="30" as="geometry" />
        </mxCell>
        <mxCell id="YzzwRAZCWaj9JnVzKXwe-438" value="" style="triangle;whiteSpace=wrap;html=1;strokeWidth=3;" vertex="1" parent="1">
          <mxGeometry x="-1225" y="-1953" width="20" height="30" as="geometry" />
        </mxCell>
        <mxCell id="YzzwRAZCWaj9JnVzKXwe-439" value="" style="endArrow=none;html=1;rounded=0;exitX=0.028;exitY=0.972;exitDx=0;exitDy=0;exitPerimeter=0;entryX=0.026;entryY=0.031;entryDx=0;entryDy=0;entryPerimeter=0;strokeWidth=3;" edge="1" parent="1" source="YzzwRAZCWaj9JnVzKXwe-434" target="YzzwRAZCWaj9JnVzKXwe-434">
          <mxGeometry width="50" height="50" relative="1" as="geometry">
            <mxPoint x="-1708.9500000000007" y="-3078" as="sourcePoint" />
            <mxPoint x="-1120.0499999999993" y="-3074.3909999999996" as="targetPoint" />
          </mxGeometry>
        </mxCell>
        <mxCell id="YzzwRAZCWaj9JnVzKXwe-440" value="&lt;font style=&quot;font-size: 18px;&quot;&gt;09:09&lt;/font&gt;" style="text;html=1;align=center;verticalAlign=middle;whiteSpace=wrap;rounded=1;strokeWidth=22;fillColor=default;perimeterSpacing=0;shadow=0;glass=0;" vertex="1" parent="1">
          <mxGeometry x="-1675" y="-3104" width="60" height="20" as="geometry" />
        </mxCell>
        <mxCell id="YzzwRAZCWaj9JnVzKXwe-441" value="" style="html=1;verticalLabelPosition=bottom;align=center;labelBackgroundColor=#ffffff;verticalAlign=top;strokeWidth=2;strokeColor=#000000;shadow=0;dashed=0;shape=mxgraph.ios7.icons.battery;rotation=-90;" vertex="1" parent="1">
          <mxGeometry x="-1185" y="-3104" width="20" height="16" as="geometry" />
        </mxCell>
        <mxCell id="YzzwRAZCWaj9JnVzKXwe-442" value="&lt;p style=&quot;line-height: 230%;&quot;&gt;&lt;font style=&quot;font-size: 15px;&quot;&gt;50&lt;/font&gt;&lt;font style=&quot;font-size: 15px;&quot;&gt;%&lt;/font&gt;&lt;/p&gt;" style="text;html=1;align=center;verticalAlign=middle;resizable=0;points=[];autosize=1;strokeColor=none;fillColor=none;strokeWidth=4;" vertex="1" parent="1">
          <mxGeometry x="-1235" y="-3131" width="50" height="70" as="geometry" />
        </mxCell>
        <mxCell id="YzzwRAZCWaj9JnVzKXwe-443" value="" style="rounded=0;whiteSpace=wrap;html=1;rotation=90;strokeWidth=1;fillColor=#1B1D1F;strokeColor=#000000;" vertex="1" parent="1">
          <mxGeometry x="-1105" y="-2928" width="60" height="10" as="geometry" />
        </mxCell>
        <mxCell id="YzzwRAZCWaj9JnVzKXwe-444" value="" style="rounded=0;whiteSpace=wrap;html=1;rotation=90;strokeWidth=1;fillColor=#1B1D1F;strokeColor=#000000;" vertex="1" parent="1">
          <mxGeometry x="-1105" y="-2848" width="60" height="10" as="geometry" />
        </mxCell>
        <mxCell id="YzzwRAZCWaj9JnVzKXwe-445" value="" style="rounded=0;whiteSpace=wrap;html=1;rotation=90;strokeWidth=1;fillColor=#1B1D1F;strokeColor=#000000;" vertex="1" parent="1">
          <mxGeometry x="-1105" y="-2708" width="60" height="10" as="geometry" />
        </mxCell>
        <mxCell id="YzzwRAZCWaj9JnVzKXwe-446" value="&lt;font style=&quot;font-size: 24px;&quot;&gt;Nome:&lt;/font&gt;" style="text;html=1;align=center;verticalAlign=middle;whiteSpace=wrap;rounded=0;" vertex="1" parent="1">
          <mxGeometry x="-1715" y="-2853" width="60" height="40" as="geometry" />
        </mxCell>
        <mxCell id="YzzwRAZCWaj9JnVzKXwe-447" value="" style="rounded=1;whiteSpace=wrap;html=1;" vertex="1" parent="1">
          <mxGeometry x="-1625" y="-2850.5" width="490" height="35" as="geometry" />
        </mxCell>
        <mxCell id="YzzwRAZCWaj9JnVzKXwe-448" value="&lt;font style=&quot;font-size: 24px;&quot;&gt;Número:&lt;/font&gt;" style="text;html=1;align=center;verticalAlign=middle;whiteSpace=wrap;rounded=0;" vertex="1" parent="1">
          <mxGeometry x="-1710" y="-2798.5" width="60" height="40" as="geometry" />
        </mxCell>
        <mxCell id="YzzwRAZCWaj9JnVzKXwe-449" value="&lt;font style=&quot;font-size: 24px;&quot;&gt;&amp;nbsp;(&amp;nbsp; )&lt;/font&gt;" style="rounded=1;whiteSpace=wrap;html=1;align=left;" vertex="1" parent="1">
          <mxGeometry x="-1628" y="-2798.5" width="240" height="35" as="geometry" />
        </mxCell>
        <mxCell id="YzzwRAZCWaj9JnVzKXwe-450" value="&lt;span style=&quot;font-size: 24px;&quot;&gt;Email:&lt;/span&gt;" style="text;html=1;align=center;verticalAlign=middle;whiteSpace=wrap;rounded=0;" vertex="1" parent="1">
          <mxGeometry x="-1718" y="-2666" width="60" height="40" as="geometry" />
        </mxCell>
        <mxCell id="YzzwRAZCWaj9JnVzKXwe-451" value="" style="rounded=1;whiteSpace=wrap;html=1;" vertex="1" parent="1">
          <mxGeometry x="-1628" y="-2666" width="490" height="35" as="geometry" />
        </mxCell>
        <mxCell id="YzzwRAZCWaj9JnVzKXwe-452" value="&lt;span style=&quot;font-size: 24px;&quot;&gt;Endereço:&lt;/span&gt;" style="text;html=1;align=center;verticalAlign=middle;whiteSpace=wrap;rounded=0;" vertex="1" parent="1">
          <mxGeometry x="-1698" y="-2730" width="60" height="40" as="geometry" />
        </mxCell>
        <mxCell id="YzzwRAZCWaj9JnVzKXwe-453" value="" style="rounded=1;whiteSpace=wrap;html=1;" vertex="1" parent="1">
          <mxGeometry x="-1605.5" y="-2730" width="390" height="35" as="geometry" />
        </mxCell>
        <mxCell id="YzzwRAZCWaj9JnVzKXwe-454" value="" style="rounded=1;whiteSpace=wrap;html=1;strokeWidth=22;fillColor=#e1d5e7;strokeColor=#000000;" vertex="1" parent="1">
          <mxGeometry x="-945" y="-3158" width="1610" height="1260" as="geometry" />
        </mxCell>
        <mxCell id="YzzwRAZCWaj9JnVzKXwe-455" value="&lt;font style=&quot;font-size: 24px;&quot;&gt;Nome:&lt;/font&gt;" style="text;html=1;align=center;verticalAlign=middle;whiteSpace=wrap;rounded=0;" vertex="1" parent="1">
          <mxGeometry x="-805" y="-2928" width="60" height="40" as="geometry" />
        </mxCell>
        <mxCell id="YzzwRAZCWaj9JnVzKXwe-456" value="&lt;font style=&quot;font-size: 24px;&quot;&gt;Número:&lt;/font&gt;" style="text;html=1;align=center;verticalAlign=middle;whiteSpace=wrap;rounded=0;" vertex="1" parent="1">
          <mxGeometry x="-795" y="-2871.5" width="60" height="40" as="geometry" />
        </mxCell>
        <mxCell id="YzzwRAZCWaj9JnVzKXwe-457" value="&lt;font style=&quot;font-size: 24px;&quot;&gt;&amp;nbsp;(&amp;nbsp; )&lt;/font&gt;" style="rounded=1;whiteSpace=wrap;html=1;align=left;" vertex="1" parent="1">
          <mxGeometry x="-710.5" y="-2869" width="240" height="35" as="geometry" />
        </mxCell>
        <mxCell id="YzzwRAZCWaj9JnVzKXwe-458" value="&lt;span style=&quot;font-size: 24px;&quot;&gt;Email:&lt;/span&gt;" style="text;html=1;align=center;verticalAlign=middle;whiteSpace=wrap;rounded=0;" vertex="1" parent="1">
          <mxGeometry x="-805" y="-2739" width="60" height="40" as="geometry" />
        </mxCell>
        <mxCell id="YzzwRAZCWaj9JnVzKXwe-459" value="&lt;span style=&quot;font-size: 24px;&quot;&gt;Endereço:&lt;/span&gt;" style="text;html=1;align=center;verticalAlign=middle;whiteSpace=wrap;rounded=0;" vertex="1" parent="1">
          <mxGeometry x="-785" y="-2803" width="60" height="40" as="geometry" />
        </mxCell>
        <mxCell id="YzzwRAZCWaj9JnVzKXwe-460" value="&lt;font style=&quot;font-size: 24px;&quot;&gt;Confirme seus dados&lt;/font&gt;" style="rounded=1;whiteSpace=wrap;html=1;fillColor=#dae8fc;strokeColor=#6c8ebf;" vertex="1" parent="1">
          <mxGeometry x="-1574.5" y="-2125" width="300" height="60" as="geometry" />
        </mxCell>
        <mxCell id="YzzwRAZCWaj9JnVzKXwe-461" value="" style="rounded=1;whiteSpace=wrap;html=1;" vertex="1" parent="1">
          <mxGeometry x="-710.5" y="-2734" width="490" height="35" as="geometry" />
        </mxCell>
        <mxCell id="YzzwRAZCWaj9JnVzKXwe-462" value="" style="rounded=1;whiteSpace=wrap;html=1;" vertex="1" parent="1">
          <mxGeometry x="-695" y="-2800.5" width="390" height="35" as="geometry" />
        </mxCell>
        <mxCell id="YzzwRAZCWaj9JnVzKXwe-463" value="" style="rounded=1;whiteSpace=wrap;html=1;" vertex="1" parent="1">
          <mxGeometry x="-700.5" y="-2925.5" width="490" height="35" as="geometry" />
        </mxCell>
        <mxCell id="YzzwRAZCWaj9JnVzKXwe-464" value="&lt;span style=&quot;font-size: 48px;&quot;&gt;Cadastre o Fornecedor:&lt;/span&gt;" style="text;html=1;align=center;verticalAlign=middle;whiteSpace=wrap;rounded=0;" vertex="1" parent="1">
          <mxGeometry x="-415" y="-3082" width="550" height="30" as="geometry" />
        </mxCell>
        <mxCell id="YzzwRAZCWaj9JnVzKXwe-465" value="&lt;font style=&quot;font-size: 24px;&quot;&gt;Confirme seus dados&lt;/font&gt;" style="rounded=1;whiteSpace=wrap;html=1;fillColor=#dae8fc;strokeColor=#6c8ebf;" vertex="1" parent="1">
          <mxGeometry x="-290" y="-2125" width="300" height="60" as="geometry" />
        </mxCell>
        <mxCell id="YzzwRAZCWaj9JnVzKXwe-466" value="&lt;span style=&quot;font-size: 135px;&quot;&gt;&lt;b&gt;&lt;i&gt;Fornecedor&lt;/i&gt;&lt;/b&gt;&lt;/span&gt;" style="text;html=1;align=center;verticalAlign=middle;resizable=0;points=[];autosize=1;strokeColor=none;fillColor=none;" vertex="1" parent="1">
          <mxGeometry x="-1433" y="-3440" width="770" height="180" as="geometry" />
        </mxCell>
        <mxCell id="YzzwRAZCWaj9JnVzKXwe-467" value="&lt;span style=&quot;font-size: 48px;&quot;&gt;Cadastre o Fornecedor:&lt;/span&gt;" style="text;html=1;align=center;verticalAlign=middle;whiteSpace=wrap;rounded=0;" vertex="1" parent="1">
          <mxGeometry x="-1682.5" y="-3035" width="550" height="30" as="geometry" />
        </mxCell>
        <mxCell id="YzzwRAZCWaj9JnVzKXwe-468" value="&lt;font color=&quot;#cc0000&quot;&gt;&lt;span style=&quot;font-size: 18px;&quot;&gt;Email inexistente&lt;/span&gt;&lt;/font&gt;" style="text;html=1;align=center;verticalAlign=middle;resizable=0;points=[];autosize=1;strokeColor=none;fillColor=none;" vertex="1" parent="1">
          <mxGeometry x="-1628" y="-2631" width="160" height="40" as="geometry" />
        </mxCell>
        <mxCell id="YzzwRAZCWaj9JnVzKXwe-469" value="&lt;font color=&quot;#cc0000&quot;&gt;&lt;span style=&quot;font-size: 18px;&quot;&gt;Email inexistente&lt;/span&gt;&lt;/font&gt;" style="text;html=1;align=center;verticalAlign=middle;resizable=0;points=[];autosize=1;strokeColor=none;fillColor=none;" vertex="1" parent="1">
          <mxGeometry x="-720.5" y="-2699" width="160" height="40" as="geometry" />
        </mxCell>
        <mxCell id="YzzwRAZCWaj9JnVzKXwe-470" value="" style="rounded=0;whiteSpace=wrap;html=1;fillColor=#003366;" vertex="1" parent="1">
          <mxGeometry x="-1681" y="-2394.4" width="513" height="150" as="geometry" />
        </mxCell>
        <mxCell id="YzzwRAZCWaj9JnVzKXwe-471" value="" style="endArrow=none;html=1;rounded=0;entryX=0.171;entryY=0.003;entryDx=0;entryDy=0;entryPerimeter=0;" edge="1" parent="1" target="YzzwRAZCWaj9JnVzKXwe-470">
          <mxGeometry width="50" height="50" relative="1" as="geometry">
            <mxPoint x="-1593" y="-2244.4" as="sourcePoint" />
            <mxPoint x="-1511" y="-2294.4" as="targetPoint" />
          </mxGeometry>
        </mxCell>
        <mxCell id="YzzwRAZCWaj9JnVzKXwe-472" value="" style="endArrow=none;html=1;rounded=0;entryX=0.171;entryY=0.003;entryDx=0;entryDy=0;entryPerimeter=0;exitX=0.337;exitY=1.012;exitDx=0;exitDy=0;exitPerimeter=0;" edge="1" parent="1" source="YzzwRAZCWaj9JnVzKXwe-470">
          <mxGeometry width="50" height="50" relative="1" as="geometry">
            <mxPoint x="-1509.67" y="-2018.9" as="sourcePoint" />
            <mxPoint x="-1509.67" y="-2393.9" as="targetPoint" />
          </mxGeometry>
        </mxCell>
        <mxCell id="YzzwRAZCWaj9JnVzKXwe-473" value="" style="endArrow=none;html=1;rounded=0;entryX=0.171;entryY=0.003;entryDx=0;entryDy=0;entryPerimeter=0;" edge="1" parent="1">
          <mxGeometry width="50" height="50" relative="1" as="geometry">
            <mxPoint x="-1419" y="-2244.4" as="sourcePoint" />
            <mxPoint x="-1419.17" y="-2393.4" as="targetPoint" />
          </mxGeometry>
        </mxCell>
        <mxCell id="YzzwRAZCWaj9JnVzKXwe-474" value="" style="endArrow=none;html=1;rounded=0;entryX=0.171;entryY=0.003;entryDx=0;entryDy=0;entryPerimeter=0;" edge="1" parent="1">
          <mxGeometry width="50" height="50" relative="1" as="geometry">
            <mxPoint x="-1331" y="-2244.4" as="sourcePoint" />
            <mxPoint x="-1331" y="-2393.9" as="targetPoint" />
          </mxGeometry>
        </mxCell>
        <mxCell id="YzzwRAZCWaj9JnVzKXwe-475" value="" style="endArrow=none;html=1;rounded=0;entryX=0.171;entryY=0.003;entryDx=0;entryDy=0;entryPerimeter=0;" edge="1" parent="1">
          <mxGeometry width="50" height="50" relative="1" as="geometry">
            <mxPoint x="-1246" y="-2244.4" as="sourcePoint" />
            <mxPoint x="-1246" y="-2393.4" as="targetPoint" />
          </mxGeometry>
        </mxCell>
        <mxCell id="YzzwRAZCWaj9JnVzKXwe-476" value="" style="endArrow=none;html=1;rounded=0;" edge="1" parent="1">
          <mxGeometry width="50" height="50" relative="1" as="geometry">
            <mxPoint x="-1681" y="-2334.4" as="sourcePoint" />
            <mxPoint x="-1171" y="-2334.4" as="targetPoint" />
          </mxGeometry>
        </mxCell>
        <mxCell id="YzzwRAZCWaj9JnVzKXwe-477" value="&lt;span style=&quot;font-size: 24px;&quot;&gt;Produtos:&lt;/span&gt;" style="text;html=1;align=center;verticalAlign=middle;whiteSpace=wrap;rounded=0;" vertex="1" parent="1">
          <mxGeometry x="-1503" y="-2465" width="142" height="40" as="geometry" />
        </mxCell>
        <mxCell id="YzzwRAZCWaj9JnVzKXwe-478" value="" style="ellipse;whiteSpace=wrap;html=1;aspect=fixed;fillColor=#006633;strokeColor=#82b366;" vertex="1" parent="1">
          <mxGeometry x="-1657" y="-2305" width="40" height="40" as="geometry" />
        </mxCell>
        <mxCell id="YzzwRAZCWaj9JnVzKXwe-479" value="" style="ellipse;whiteSpace=wrap;html=1;aspect=fixed;fillColor=#006633;strokeColor=#82b366;" vertex="1" parent="1">
          <mxGeometry x="-1575" y="-2305" width="40" height="40" as="geometry" />
        </mxCell>
        <mxCell id="YzzwRAZCWaj9JnVzKXwe-480" value="" style="ellipse;whiteSpace=wrap;html=1;aspect=fixed;fillColor=#006633;strokeColor=#82b366;" vertex="1" parent="1">
          <mxGeometry x="-1486.5" y="-2305" width="40" height="40" as="geometry" />
        </mxCell>
        <mxCell id="YzzwRAZCWaj9JnVzKXwe-481" value="" style="ellipse;whiteSpace=wrap;html=1;aspect=fixed;fillColor=#006633;strokeColor=#82b366;" vertex="1" parent="1">
          <mxGeometry x="-1395" y="-2305" width="40" height="40" as="geometry" />
        </mxCell>
        <mxCell id="YzzwRAZCWaj9JnVzKXwe-482" value="" style="ellipse;whiteSpace=wrap;html=1;aspect=fixed;fillColor=#006633;strokeColor=#82b366;" vertex="1" parent="1">
          <mxGeometry x="-1313" y="-2305" width="40" height="40" as="geometry" />
        </mxCell>
        <mxCell id="YzzwRAZCWaj9JnVzKXwe-483" value="" style="ellipse;whiteSpace=wrap;html=1;aspect=fixed;fillColor=#006633;strokeColor=#82b366;" vertex="1" parent="1">
          <mxGeometry x="-1224.5" y="-2305" width="40" height="40" as="geometry" />
        </mxCell>
        <mxCell id="YzzwRAZCWaj9JnVzKXwe-484" value="&lt;font style=&quot;font-size: 27px;&quot; color=&quot;#ffffff&quot;&gt;A&lt;/font&gt;" style="text;html=1;align=center;verticalAlign=middle;resizable=0;points=[];autosize=1;strokeColor=none;fillColor=none;" vertex="1" parent="1">
          <mxGeometry x="-1659.5" y="-2385" width="40" height="50" as="geometry" />
        </mxCell>
        <mxCell id="YzzwRAZCWaj9JnVzKXwe-485" value="&lt;font style=&quot;font-size: 27px;&quot; color=&quot;#ffffff&quot;&gt;A&lt;/font&gt;" style="text;html=1;align=center;verticalAlign=middle;resizable=0;points=[];autosize=1;strokeColor=none;fillColor=none;" vertex="1" parent="1">
          <mxGeometry x="-1575" y="-2385" width="40" height="50" as="geometry" />
        </mxCell>
        <mxCell id="YzzwRAZCWaj9JnVzKXwe-486" value="&lt;font style=&quot;font-size: 27px;&quot; color=&quot;#ffffff&quot;&gt;A&lt;/font&gt;" style="text;html=1;align=center;verticalAlign=middle;resizable=0;points=[];autosize=1;strokeColor=none;fillColor=none;" vertex="1" parent="1">
          <mxGeometry x="-1486.5" y="-2385" width="40" height="50" as="geometry" />
        </mxCell>
        <mxCell id="YzzwRAZCWaj9JnVzKXwe-487" value="&lt;font style=&quot;font-size: 27px;&quot; color=&quot;#ffffff&quot;&gt;A&lt;/font&gt;" style="text;html=1;align=center;verticalAlign=middle;resizable=0;points=[];autosize=1;strokeColor=none;fillColor=none;" vertex="1" parent="1">
          <mxGeometry x="-1395" y="-2385" width="40" height="50" as="geometry" />
        </mxCell>
        <mxCell id="YzzwRAZCWaj9JnVzKXwe-488" value="&lt;font style=&quot;font-size: 27px;&quot; color=&quot;#ffffff&quot;&gt;A&lt;/font&gt;" style="text;html=1;align=center;verticalAlign=middle;resizable=0;points=[];autosize=1;strokeColor=none;fillColor=none;" vertex="1" parent="1">
          <mxGeometry x="-1313" y="-2385" width="40" height="50" as="geometry" />
        </mxCell>
        <mxCell id="YzzwRAZCWaj9JnVzKXwe-489" value="&lt;font style=&quot;font-size: 27px;&quot; color=&quot;#ffffff&quot;&gt;A&lt;/font&gt;" style="text;html=1;align=center;verticalAlign=middle;resizable=0;points=[];autosize=1;strokeColor=none;fillColor=none;" vertex="1" parent="1">
          <mxGeometry x="-1224.5" y="-2385" width="40" height="50" as="geometry" />
        </mxCell>
        <mxCell id="YzzwRAZCWaj9JnVzKXwe-490" value="" style="rounded=0;whiteSpace=wrap;html=1;fillColor=#003366;" vertex="1" parent="1">
          <mxGeometry x="-766.5" y="-4119.4" width="513" height="150" as="geometry" />
        </mxCell>
        <mxCell id="YzzwRAZCWaj9JnVzKXwe-491" value="" style="endArrow=none;html=1;rounded=0;entryX=0.171;entryY=0.003;entryDx=0;entryDy=0;entryPerimeter=0;" edge="1" parent="1" target="YzzwRAZCWaj9JnVzKXwe-490">
          <mxGeometry width="50" height="50" relative="1" as="geometry">
            <mxPoint x="-678.5" y="-3969.4" as="sourcePoint" />
            <mxPoint x="-596.5" y="-4019.4" as="targetPoint" />
          </mxGeometry>
        </mxCell>
        <mxCell id="YzzwRAZCWaj9JnVzKXwe-492" value="" style="endArrow=none;html=1;rounded=0;entryX=0.171;entryY=0.003;entryDx=0;entryDy=0;entryPerimeter=0;exitX=0.337;exitY=1.012;exitDx=0;exitDy=0;exitPerimeter=0;" edge="1" parent="1" source="YzzwRAZCWaj9JnVzKXwe-490">
          <mxGeometry width="50" height="50" relative="1" as="geometry">
            <mxPoint x="-595.1700000000001" y="-3743.9" as="sourcePoint" />
            <mxPoint x="-595.1700000000001" y="-4118.9" as="targetPoint" />
          </mxGeometry>
        </mxCell>
        <mxCell id="YzzwRAZCWaj9JnVzKXwe-493" value="" style="endArrow=none;html=1;rounded=0;entryX=0.171;entryY=0.003;entryDx=0;entryDy=0;entryPerimeter=0;" edge="1" parent="1">
          <mxGeometry width="50" height="50" relative="1" as="geometry">
            <mxPoint x="-504.5" y="-3969.4" as="sourcePoint" />
            <mxPoint x="-504.6700000000001" y="-4118.4" as="targetPoint" />
          </mxGeometry>
        </mxCell>
        <mxCell id="YzzwRAZCWaj9JnVzKXwe-494" value="" style="endArrow=none;html=1;rounded=0;entryX=0.171;entryY=0.003;entryDx=0;entryDy=0;entryPerimeter=0;" edge="1" parent="1">
          <mxGeometry width="50" height="50" relative="1" as="geometry">
            <mxPoint x="-416.5" y="-3969.4" as="sourcePoint" />
            <mxPoint x="-416.5" y="-4118.9" as="targetPoint" />
          </mxGeometry>
        </mxCell>
        <mxCell id="YzzwRAZCWaj9JnVzKXwe-495" value="" style="endArrow=none;html=1;rounded=0;entryX=0.171;entryY=0.003;entryDx=0;entryDy=0;entryPerimeter=0;" edge="1" parent="1">
          <mxGeometry width="50" height="50" relative="1" as="geometry">
            <mxPoint x="-331.5" y="-3969.4" as="sourcePoint" />
            <mxPoint x="-331.5" y="-4118.4" as="targetPoint" />
          </mxGeometry>
        </mxCell>
        <mxCell id="YzzwRAZCWaj9JnVzKXwe-496" value="" style="endArrow=none;html=1;rounded=0;" edge="1" parent="1">
          <mxGeometry width="50" height="50" relative="1" as="geometry">
            <mxPoint x="-766.5" y="-4059.4" as="sourcePoint" />
            <mxPoint x="-256.5" y="-4059.4" as="targetPoint" />
          </mxGeometry>
        </mxCell>
        <mxCell id="YzzwRAZCWaj9JnVzKXwe-497" value="&lt;span style=&quot;font-size: 24px;&quot;&gt;Produtos:&lt;/span&gt;" style="text;html=1;align=center;verticalAlign=middle;whiteSpace=wrap;rounded=0;" vertex="1" parent="1">
          <mxGeometry x="-588.5" y="-4190" width="142" height="40" as="geometry" />
        </mxCell>
        <mxCell id="YzzwRAZCWaj9JnVzKXwe-498" value="" style="ellipse;whiteSpace=wrap;html=1;aspect=fixed;fillColor=#006633;strokeColor=#82b366;" vertex="1" parent="1">
          <mxGeometry x="-742.5" y="-4030" width="40" height="40" as="geometry" />
        </mxCell>
        <mxCell id="YzzwRAZCWaj9JnVzKXwe-499" value="" style="ellipse;whiteSpace=wrap;html=1;aspect=fixed;fillColor=#006633;strokeColor=#82b366;" vertex="1" parent="1">
          <mxGeometry x="-660.5" y="-4030" width="40" height="40" as="geometry" />
        </mxCell>
        <mxCell id="YzzwRAZCWaj9JnVzKXwe-500" value="" style="ellipse;whiteSpace=wrap;html=1;aspect=fixed;fillColor=#006633;strokeColor=#82b366;" vertex="1" parent="1">
          <mxGeometry x="-572" y="-4030" width="40" height="40" as="geometry" />
        </mxCell>
        <mxCell id="YzzwRAZCWaj9JnVzKXwe-501" value="" style="ellipse;whiteSpace=wrap;html=1;aspect=fixed;fillColor=#006633;strokeColor=#82b366;" vertex="1" parent="1">
          <mxGeometry x="-480.5" y="-4030" width="40" height="40" as="geometry" />
        </mxCell>
        <mxCell id="YzzwRAZCWaj9JnVzKXwe-502" value="" style="ellipse;whiteSpace=wrap;html=1;aspect=fixed;fillColor=#006633;strokeColor=#82b366;" vertex="1" parent="1">
          <mxGeometry x="-398.5" y="-4030" width="40" height="40" as="geometry" />
        </mxCell>
        <mxCell id="YzzwRAZCWaj9JnVzKXwe-503" value="" style="ellipse;whiteSpace=wrap;html=1;aspect=fixed;fillColor=#006633;strokeColor=#82b366;" vertex="1" parent="1">
          <mxGeometry x="-310" y="-4030" width="40" height="40" as="geometry" />
        </mxCell>
        <mxCell id="YzzwRAZCWaj9JnVzKXwe-504" value="&lt;font style=&quot;font-size: 27px;&quot; color=&quot;#ffffff&quot;&gt;A&lt;/font&gt;" style="text;html=1;align=center;verticalAlign=middle;resizable=0;points=[];autosize=1;strokeColor=none;fillColor=none;" vertex="1" parent="1">
          <mxGeometry x="-745" y="-4110" width="40" height="50" as="geometry" />
        </mxCell>
        <mxCell id="YzzwRAZCWaj9JnVzKXwe-505" value="&lt;font style=&quot;font-size: 27px;&quot; color=&quot;#ffffff&quot;&gt;A&lt;/font&gt;" style="text;html=1;align=center;verticalAlign=middle;resizable=0;points=[];autosize=1;strokeColor=none;fillColor=none;" vertex="1" parent="1">
          <mxGeometry x="-660.5" y="-4110" width="40" height="50" as="geometry" />
        </mxCell>
        <mxCell id="YzzwRAZCWaj9JnVzKXwe-506" value="&lt;font style=&quot;font-size: 27px;&quot; color=&quot;#ffffff&quot;&gt;A&lt;/font&gt;" style="text;html=1;align=center;verticalAlign=middle;resizable=0;points=[];autosize=1;strokeColor=none;fillColor=none;" vertex="1" parent="1">
          <mxGeometry x="-572" y="-4110" width="40" height="50" as="geometry" />
        </mxCell>
        <mxCell id="YzzwRAZCWaj9JnVzKXwe-507" value="&lt;font style=&quot;font-size: 27px;&quot; color=&quot;#ffffff&quot;&gt;A&lt;/font&gt;" style="text;html=1;align=center;verticalAlign=middle;resizable=0;points=[];autosize=1;strokeColor=none;fillColor=none;" vertex="1" parent="1">
          <mxGeometry x="-480.5" y="-4110" width="40" height="50" as="geometry" />
        </mxCell>
        <mxCell id="YzzwRAZCWaj9JnVzKXwe-508" value="&lt;font style=&quot;font-size: 27px;&quot; color=&quot;#ffffff&quot;&gt;A&lt;/font&gt;" style="text;html=1;align=center;verticalAlign=middle;resizable=0;points=[];autosize=1;strokeColor=none;fillColor=none;" vertex="1" parent="1">
          <mxGeometry x="-398.5" y="-4110" width="40" height="50" as="geometry" />
        </mxCell>
        <mxCell id="YzzwRAZCWaj9JnVzKXwe-509" value="&lt;font style=&quot;font-size: 27px;&quot; color=&quot;#ffffff&quot;&gt;A&lt;/font&gt;" style="text;html=1;align=center;verticalAlign=middle;resizable=0;points=[];autosize=1;strokeColor=none;fillColor=none;" vertex="1" parent="1">
          <mxGeometry x="-310" y="-4110" width="40" height="50" as="geometry" />
        </mxCell>
        <mxCell id="YzzwRAZCWaj9JnVzKXwe-510" value="" style="rounded=0;whiteSpace=wrap;html=1;fillColor=#003366;" vertex="1" parent="1">
          <mxGeometry x="-756.5" y="-2373.8" width="513" height="150" as="geometry" />
        </mxCell>
        <mxCell id="YzzwRAZCWaj9JnVzKXwe-511" value="" style="endArrow=none;html=1;rounded=0;entryX=0.171;entryY=0.003;entryDx=0;entryDy=0;entryPerimeter=0;" edge="1" parent="1" target="YzzwRAZCWaj9JnVzKXwe-510">
          <mxGeometry width="50" height="50" relative="1" as="geometry">
            <mxPoint x="-668.5" y="-2223.8" as="sourcePoint" />
            <mxPoint x="-586.5" y="-2273.8" as="targetPoint" />
          </mxGeometry>
        </mxCell>
        <mxCell id="YzzwRAZCWaj9JnVzKXwe-512" value="" style="endArrow=none;html=1;rounded=0;entryX=0.171;entryY=0.003;entryDx=0;entryDy=0;entryPerimeter=0;exitX=0.337;exitY=1.012;exitDx=0;exitDy=0;exitPerimeter=0;" edge="1" parent="1" source="YzzwRAZCWaj9JnVzKXwe-510">
          <mxGeometry width="50" height="50" relative="1" as="geometry">
            <mxPoint x="-585.1700000000001" y="-1998.3000000000002" as="sourcePoint" />
            <mxPoint x="-585.1700000000001" y="-2373.3" as="targetPoint" />
          </mxGeometry>
        </mxCell>
        <mxCell id="YzzwRAZCWaj9JnVzKXwe-513" value="" style="endArrow=none;html=1;rounded=0;entryX=0.171;entryY=0.003;entryDx=0;entryDy=0;entryPerimeter=0;" edge="1" parent="1">
          <mxGeometry width="50" height="50" relative="1" as="geometry">
            <mxPoint x="-494.5" y="-2223.8" as="sourcePoint" />
            <mxPoint x="-494.6700000000001" y="-2372.8" as="targetPoint" />
          </mxGeometry>
        </mxCell>
        <mxCell id="YzzwRAZCWaj9JnVzKXwe-514" value="" style="endArrow=none;html=1;rounded=0;entryX=0.171;entryY=0.003;entryDx=0;entryDy=0;entryPerimeter=0;" edge="1" parent="1">
          <mxGeometry width="50" height="50" relative="1" as="geometry">
            <mxPoint x="-406.5" y="-2223.8" as="sourcePoint" />
            <mxPoint x="-406.5" y="-2373.3" as="targetPoint" />
          </mxGeometry>
        </mxCell>
        <mxCell id="YzzwRAZCWaj9JnVzKXwe-515" value="" style="endArrow=none;html=1;rounded=0;entryX=0.171;entryY=0.003;entryDx=0;entryDy=0;entryPerimeter=0;" edge="1" parent="1">
          <mxGeometry width="50" height="50" relative="1" as="geometry">
            <mxPoint x="-321.5" y="-2223.8" as="sourcePoint" />
            <mxPoint x="-321.5" y="-2372.8" as="targetPoint" />
          </mxGeometry>
        </mxCell>
        <mxCell id="YzzwRAZCWaj9JnVzKXwe-516" value="" style="endArrow=none;html=1;rounded=0;" edge="1" parent="1">
          <mxGeometry width="50" height="50" relative="1" as="geometry">
            <mxPoint x="-756.5" y="-2313.8" as="sourcePoint" />
            <mxPoint x="-246.5" y="-2313.8" as="targetPoint" />
          </mxGeometry>
        </mxCell>
        <mxCell id="YzzwRAZCWaj9JnVzKXwe-517" value="&lt;span style=&quot;font-size: 24px;&quot;&gt;Produtos:&lt;/span&gt;" style="text;html=1;align=center;verticalAlign=middle;whiteSpace=wrap;rounded=0;" vertex="1" parent="1">
          <mxGeometry x="-578.5" y="-2444.4" width="142" height="40" as="geometry" />
        </mxCell>
        <mxCell id="YzzwRAZCWaj9JnVzKXwe-518" value="" style="ellipse;whiteSpace=wrap;html=1;aspect=fixed;fillColor=#006633;strokeColor=#82b366;" vertex="1" parent="1">
          <mxGeometry x="-732.5" y="-2284.4" width="40" height="40" as="geometry" />
        </mxCell>
        <mxCell id="YzzwRAZCWaj9JnVzKXwe-519" value="" style="ellipse;whiteSpace=wrap;html=1;aspect=fixed;fillColor=#006633;strokeColor=#82b366;" vertex="1" parent="1">
          <mxGeometry x="-650.5" y="-2284.4" width="40" height="40" as="geometry" />
        </mxCell>
        <mxCell id="YzzwRAZCWaj9JnVzKXwe-520" value="" style="ellipse;whiteSpace=wrap;html=1;aspect=fixed;fillColor=#006633;strokeColor=#82b366;" vertex="1" parent="1">
          <mxGeometry x="-562" y="-2284.4" width="40" height="40" as="geometry" />
        </mxCell>
        <mxCell id="YzzwRAZCWaj9JnVzKXwe-521" value="" style="ellipse;whiteSpace=wrap;html=1;aspect=fixed;fillColor=#006633;strokeColor=#82b366;" vertex="1" parent="1">
          <mxGeometry x="-470.5" y="-2284.4" width="40" height="40" as="geometry" />
        </mxCell>
        <mxCell id="YzzwRAZCWaj9JnVzKXwe-522" value="" style="ellipse;whiteSpace=wrap;html=1;aspect=fixed;fillColor=#006633;strokeColor=#82b366;" vertex="1" parent="1">
          <mxGeometry x="-388.5" y="-2284.4" width="40" height="40" as="geometry" />
        </mxCell>
        <mxCell id="YzzwRAZCWaj9JnVzKXwe-523" value="" style="ellipse;whiteSpace=wrap;html=1;aspect=fixed;fillColor=#006633;strokeColor=#82b366;" vertex="1" parent="1">
          <mxGeometry x="-300" y="-2284.4" width="40" height="40" as="geometry" />
        </mxCell>
        <mxCell id="YzzwRAZCWaj9JnVzKXwe-524" value="&lt;font style=&quot;font-size: 27px;&quot; color=&quot;#ffffff&quot;&gt;A&lt;/font&gt;" style="text;html=1;align=center;verticalAlign=middle;resizable=0;points=[];autosize=1;strokeColor=none;fillColor=none;" vertex="1" parent="1">
          <mxGeometry x="-735" y="-2364.4" width="40" height="50" as="geometry" />
        </mxCell>
        <mxCell id="YzzwRAZCWaj9JnVzKXwe-525" value="&lt;font style=&quot;font-size: 27px;&quot; color=&quot;#ffffff&quot;&gt;A&lt;/font&gt;" style="text;html=1;align=center;verticalAlign=middle;resizable=0;points=[];autosize=1;strokeColor=none;fillColor=none;" vertex="1" parent="1">
          <mxGeometry x="-650.5" y="-2364.4" width="40" height="50" as="geometry" />
        </mxCell>
        <mxCell id="YzzwRAZCWaj9JnVzKXwe-526" value="&lt;font style=&quot;font-size: 27px;&quot; color=&quot;#ffffff&quot;&gt;A&lt;/font&gt;" style="text;html=1;align=center;verticalAlign=middle;resizable=0;points=[];autosize=1;strokeColor=none;fillColor=none;" vertex="1" parent="1">
          <mxGeometry x="-562" y="-2364.4" width="40" height="50" as="geometry" />
        </mxCell>
        <mxCell id="YzzwRAZCWaj9JnVzKXwe-527" value="&lt;font style=&quot;font-size: 27px;&quot; color=&quot;#ffffff&quot;&gt;A&lt;/font&gt;" style="text;html=1;align=center;verticalAlign=middle;resizable=0;points=[];autosize=1;strokeColor=none;fillColor=none;" vertex="1" parent="1">
          <mxGeometry x="-470.5" y="-2364.4" width="40" height="50" as="geometry" />
        </mxCell>
        <mxCell id="YzzwRAZCWaj9JnVzKXwe-528" value="&lt;font style=&quot;font-size: 27px;&quot; color=&quot;#ffffff&quot;&gt;A&lt;/font&gt;" style="text;html=1;align=center;verticalAlign=middle;resizable=0;points=[];autosize=1;strokeColor=none;fillColor=none;" vertex="1" parent="1">
          <mxGeometry x="-388.5" y="-2364.4" width="40" height="50" as="geometry" />
        </mxCell>
        <mxCell id="YzzwRAZCWaj9JnVzKXwe-529" value="&lt;font style=&quot;font-size: 27px;&quot; color=&quot;#ffffff&quot;&gt;A&lt;/font&gt;" style="text;html=1;align=center;verticalAlign=middle;resizable=0;points=[];autosize=1;strokeColor=none;fillColor=none;" vertex="1" parent="1">
          <mxGeometry x="-300" y="-2364.4" width="40" height="50" as="geometry" />
        </mxCell>
        <mxCell id="YzzwRAZCWaj9JnVzKXwe-530" value="" style="rounded=0;whiteSpace=wrap;html=1;fillColor=#003366;" vertex="1" parent="1">
          <mxGeometry x="-1685" y="-4114.4" width="513" height="150" as="geometry" />
        </mxCell>
        <mxCell id="YzzwRAZCWaj9JnVzKXwe-531" value="" style="endArrow=none;html=1;rounded=0;entryX=0.171;entryY=0.003;entryDx=0;entryDy=0;entryPerimeter=0;" edge="1" parent="1" target="YzzwRAZCWaj9JnVzKXwe-530">
          <mxGeometry width="50" height="50" relative="1" as="geometry">
            <mxPoint x="-1597" y="-3964.4" as="sourcePoint" />
            <mxPoint x="-1515" y="-4014.4" as="targetPoint" />
          </mxGeometry>
        </mxCell>
        <mxCell id="YzzwRAZCWaj9JnVzKXwe-532" value="" style="endArrow=none;html=1;rounded=0;entryX=0.171;entryY=0.003;entryDx=0;entryDy=0;entryPerimeter=0;exitX=0.337;exitY=1.012;exitDx=0;exitDy=0;exitPerimeter=0;" edge="1" parent="1" source="YzzwRAZCWaj9JnVzKXwe-530">
          <mxGeometry width="50" height="50" relative="1" as="geometry">
            <mxPoint x="-1513.67" y="-3738.9" as="sourcePoint" />
            <mxPoint x="-1513.67" y="-4113.9" as="targetPoint" />
          </mxGeometry>
        </mxCell>
        <mxCell id="YzzwRAZCWaj9JnVzKXwe-533" value="" style="endArrow=none;html=1;rounded=0;entryX=0.171;entryY=0.003;entryDx=0;entryDy=0;entryPerimeter=0;" edge="1" parent="1">
          <mxGeometry width="50" height="50" relative="1" as="geometry">
            <mxPoint x="-1423" y="-3964.4" as="sourcePoint" />
            <mxPoint x="-1423.17" y="-4113.4" as="targetPoint" />
          </mxGeometry>
        </mxCell>
        <mxCell id="YzzwRAZCWaj9JnVzKXwe-534" value="" style="endArrow=none;html=1;rounded=0;entryX=0.171;entryY=0.003;entryDx=0;entryDy=0;entryPerimeter=0;" edge="1" parent="1">
          <mxGeometry width="50" height="50" relative="1" as="geometry">
            <mxPoint x="-1335" y="-3964.4" as="sourcePoint" />
            <mxPoint x="-1335" y="-4113.9" as="targetPoint" />
          </mxGeometry>
        </mxCell>
        <mxCell id="YzzwRAZCWaj9JnVzKXwe-535" value="" style="endArrow=none;html=1;rounded=0;entryX=0.171;entryY=0.003;entryDx=0;entryDy=0;entryPerimeter=0;" edge="1" parent="1">
          <mxGeometry width="50" height="50" relative="1" as="geometry">
            <mxPoint x="-1250" y="-3964.4" as="sourcePoint" />
            <mxPoint x="-1250" y="-4113.4" as="targetPoint" />
          </mxGeometry>
        </mxCell>
        <mxCell id="YzzwRAZCWaj9JnVzKXwe-536" value="" style="endArrow=none;html=1;rounded=0;" edge="1" parent="1">
          <mxGeometry width="50" height="50" relative="1" as="geometry">
            <mxPoint x="-1685" y="-4054.4" as="sourcePoint" />
            <mxPoint x="-1175" y="-4054.4" as="targetPoint" />
          </mxGeometry>
        </mxCell>
        <mxCell id="YzzwRAZCWaj9JnVzKXwe-537" value="&lt;span style=&quot;font-size: 24px;&quot;&gt;Produtos:&lt;/span&gt;" style="text;html=1;align=center;verticalAlign=middle;whiteSpace=wrap;rounded=0;" vertex="1" parent="1">
          <mxGeometry x="-1507" y="-4185" width="142" height="40" as="geometry" />
        </mxCell>
        <mxCell id="YzzwRAZCWaj9JnVzKXwe-538" value="" style="ellipse;whiteSpace=wrap;html=1;aspect=fixed;fillColor=#006633;strokeColor=#82b366;" vertex="1" parent="1">
          <mxGeometry x="-1661" y="-4025" width="40" height="40" as="geometry" />
        </mxCell>
        <mxCell id="YzzwRAZCWaj9JnVzKXwe-539" value="" style="ellipse;whiteSpace=wrap;html=1;aspect=fixed;fillColor=#006633;strokeColor=#82b366;" vertex="1" parent="1">
          <mxGeometry x="-1579" y="-4025" width="40" height="40" as="geometry" />
        </mxCell>
        <mxCell id="YzzwRAZCWaj9JnVzKXwe-540" value="" style="ellipse;whiteSpace=wrap;html=1;aspect=fixed;fillColor=#006633;strokeColor=#82b366;" vertex="1" parent="1">
          <mxGeometry x="-1490.5" y="-4025" width="40" height="40" as="geometry" />
        </mxCell>
        <mxCell id="YzzwRAZCWaj9JnVzKXwe-541" value="" style="ellipse;whiteSpace=wrap;html=1;aspect=fixed;fillColor=#006633;strokeColor=#82b366;" vertex="1" parent="1">
          <mxGeometry x="-1399" y="-4025" width="40" height="40" as="geometry" />
        </mxCell>
        <mxCell id="YzzwRAZCWaj9JnVzKXwe-542" value="" style="ellipse;whiteSpace=wrap;html=1;aspect=fixed;fillColor=#006633;strokeColor=#82b366;" vertex="1" parent="1">
          <mxGeometry x="-1317" y="-4025" width="40" height="40" as="geometry" />
        </mxCell>
        <mxCell id="YzzwRAZCWaj9JnVzKXwe-543" value="" style="ellipse;whiteSpace=wrap;html=1;aspect=fixed;fillColor=#006633;strokeColor=#82b366;" vertex="1" parent="1">
          <mxGeometry x="-1228.5" y="-4025" width="40" height="40" as="geometry" />
        </mxCell>
        <mxCell id="YzzwRAZCWaj9JnVzKXwe-544" value="&lt;font style=&quot;font-size: 27px;&quot; color=&quot;#ffffff&quot;&gt;A&lt;/font&gt;" style="text;html=1;align=center;verticalAlign=middle;resizable=0;points=[];autosize=1;strokeColor=none;fillColor=none;" vertex="1" parent="1">
          <mxGeometry x="-1663.5" y="-4105" width="40" height="50" as="geometry" />
        </mxCell>
        <mxCell id="YzzwRAZCWaj9JnVzKXwe-545" value="&lt;font style=&quot;font-size: 27px;&quot; color=&quot;#ffffff&quot;&gt;A&lt;/font&gt;" style="text;html=1;align=center;verticalAlign=middle;resizable=0;points=[];autosize=1;strokeColor=none;fillColor=none;" vertex="1" parent="1">
          <mxGeometry x="-1579" y="-4105" width="40" height="50" as="geometry" />
        </mxCell>
        <mxCell id="YzzwRAZCWaj9JnVzKXwe-546" value="&lt;font style=&quot;font-size: 27px;&quot; color=&quot;#ffffff&quot;&gt;A&lt;/font&gt;" style="text;html=1;align=center;verticalAlign=middle;resizable=0;points=[];autosize=1;strokeColor=none;fillColor=none;" vertex="1" parent="1">
          <mxGeometry x="-1490.5" y="-4105" width="40" height="50" as="geometry" />
        </mxCell>
        <mxCell id="YzzwRAZCWaj9JnVzKXwe-547" value="&lt;font style=&quot;font-size: 27px;&quot; color=&quot;#ffffff&quot;&gt;A&lt;/font&gt;" style="text;html=1;align=center;verticalAlign=middle;resizable=0;points=[];autosize=1;strokeColor=none;fillColor=none;" vertex="1" parent="1">
          <mxGeometry x="-1399" y="-4105" width="40" height="50" as="geometry" />
        </mxCell>
        <mxCell id="YzzwRAZCWaj9JnVzKXwe-548" value="&lt;font style=&quot;font-size: 27px;&quot; color=&quot;#ffffff&quot;&gt;A&lt;/font&gt;" style="text;html=1;align=center;verticalAlign=middle;resizable=0;points=[];autosize=1;strokeColor=none;fillColor=none;" vertex="1" parent="1">
          <mxGeometry x="-1317" y="-4105" width="40" height="50" as="geometry" />
        </mxCell>
        <mxCell id="YzzwRAZCWaj9JnVzKXwe-549" value="&lt;font style=&quot;font-size: 27px;&quot; color=&quot;#ffffff&quot;&gt;A&lt;/font&gt;" style="text;html=1;align=center;verticalAlign=middle;resizable=0;points=[];autosize=1;strokeColor=none;fillColor=none;" vertex="1" parent="1">
          <mxGeometry x="-1228.5" y="-4105" width="40" height="50" as="geometry" />
        </mxCell>
        <mxCell id="YzzwRAZCWaj9JnVzKXwe-550" value="Cross-Functional Flowchart" style="shape=table;childLayout=tableLayout;startSize=40;collapsible=0;recursiveResize=0;expand=0;fontSize=16;" vertex="1" parent="1">
          <mxGeometry x="120" y="-2568" width="400" height="400" as="geometry" />
        </mxCell>
        <mxCell id="YzzwRAZCWaj9JnVzKXwe-551" value="Actor 1" style="shape=tableRow;horizontal=0;swimlaneHead=0;swimlaneBody=0;top=0;left=0;strokeColor=inherit;bottom=0;right=0;dropTarget=0;fontStyle=0;fillColor=none;points=[[0,0.5],[1,0.5]];portConstraint=eastwest;startSize=40;collapsible=0;recursiveResize=0;expand=0;fontSize=16;" vertex="1" parent="YzzwRAZCWaj9JnVzKXwe-550">
          <mxGeometry y="40" width="400" height="120" as="geometry" />
        </mxCell>
        <mxCell id="YzzwRAZCWaj9JnVzKXwe-552" value="Phase 1" style="swimlane;swimlaneHead=0;swimlaneBody=0;fontStyle=0;strokeColor=inherit;connectable=0;fillColor=none;startSize=40;collapsible=0;recursiveResize=0;expand=0;fontSize=16;" vertex="1" parent="YzzwRAZCWaj9JnVzKXwe-551">
          <mxGeometry x="40" width="120" height="120" as="geometry">
            <mxRectangle width="120" height="120" as="alternateBounds" />
          </mxGeometry>
        </mxCell>
        <mxCell id="YzzwRAZCWaj9JnVzKXwe-553" value="Phase 2" style="swimlane;swimlaneHead=0;swimlaneBody=0;fontStyle=0;strokeColor=inherit;connectable=0;fillColor=none;startSize=40;collapsible=0;recursiveResize=0;expand=0;fontSize=16;" vertex="1" parent="YzzwRAZCWaj9JnVzKXwe-551">
          <mxGeometry x="160" width="120" height="120" as="geometry">
            <mxRectangle width="120" height="120" as="alternateBounds" />
          </mxGeometry>
        </mxCell>
        <mxCell id="YzzwRAZCWaj9JnVzKXwe-554" value="Phase 3" style="swimlane;swimlaneHead=0;swimlaneBody=0;fontStyle=0;strokeColor=inherit;connectable=0;fillColor=none;startSize=40;collapsible=0;recursiveResize=0;expand=0;fontSize=16;" vertex="1" parent="YzzwRAZCWaj9JnVzKXwe-551">
          <mxGeometry x="280" width="120" height="120" as="geometry">
            <mxRectangle width="120" height="120" as="alternateBounds" />
          </mxGeometry>
        </mxCell>
        <mxCell id="YzzwRAZCWaj9JnVzKXwe-555" value="Actor 2" style="shape=tableRow;horizontal=0;swimlaneHead=0;swimlaneBody=0;top=0;left=0;strokeColor=inherit;bottom=0;right=0;dropTarget=0;fontStyle=0;fillColor=none;points=[[0,0.5],[1,0.5]];portConstraint=eastwest;startSize=40;collapsible=0;recursiveResize=0;expand=0;fontSize=16;" vertex="1" parent="YzzwRAZCWaj9JnVzKXwe-550">
          <mxGeometry y="160" width="400" height="120" as="geometry" />
        </mxCell>
        <mxCell id="YzzwRAZCWaj9JnVzKXwe-556" value="" style="swimlane;swimlaneHead=0;swimlaneBody=0;fontStyle=0;connectable=0;strokeColor=inherit;fillColor=none;startSize=0;collapsible=0;recursiveResize=0;expand=0;fontSize=16;" vertex="1" parent="YzzwRAZCWaj9JnVzKXwe-555">
          <mxGeometry x="40" width="120" height="120" as="geometry">
            <mxRectangle width="120" height="120" as="alternateBounds" />
          </mxGeometry>
        </mxCell>
        <mxCell id="YzzwRAZCWaj9JnVzKXwe-557" value="" style="swimlane;swimlaneHead=0;swimlaneBody=0;fontStyle=0;connectable=0;strokeColor=inherit;fillColor=none;startSize=0;collapsible=0;recursiveResize=0;expand=0;fontSize=16;" vertex="1" parent="YzzwRAZCWaj9JnVzKXwe-555">
          <mxGeometry x="160" width="120" height="120" as="geometry">
            <mxRectangle width="120" height="120" as="alternateBounds" />
          </mxGeometry>
        </mxCell>
        <mxCell id="YzzwRAZCWaj9JnVzKXwe-558" value="" style="swimlane;swimlaneHead=0;swimlaneBody=0;fontStyle=0;connectable=0;strokeColor=inherit;fillColor=none;startSize=0;collapsible=0;recursiveResize=0;expand=0;fontSize=16;" vertex="1" parent="YzzwRAZCWaj9JnVzKXwe-555">
          <mxGeometry x="280" width="120" height="120" as="geometry">
            <mxRectangle width="120" height="120" as="alternateBounds" />
          </mxGeometry>
        </mxCell>
        <mxCell id="YzzwRAZCWaj9JnVzKXwe-559" value="Actor 3" style="shape=tableRow;horizontal=0;swimlaneHead=0;swimlaneBody=0;top=0;left=0;strokeColor=inherit;bottom=0;right=0;dropTarget=0;fontStyle=0;fillColor=none;points=[[0,0.5],[1,0.5]];portConstraint=eastwest;startSize=40;collapsible=0;recursiveResize=0;expand=0;fontSize=16;" vertex="1" parent="YzzwRAZCWaj9JnVzKXwe-550">
          <mxGeometry y="280" width="400" height="120" as="geometry" />
        </mxCell>
        <mxCell id="YzzwRAZCWaj9JnVzKXwe-560" value="" style="swimlane;swimlaneHead=0;swimlaneBody=0;fontStyle=0;connectable=0;strokeColor=inherit;fillColor=none;startSize=0;collapsible=0;recursiveResize=0;expand=0;fontSize=16;" vertex="1" parent="YzzwRAZCWaj9JnVzKXwe-559">
          <mxGeometry x="40" width="120" height="120" as="geometry">
            <mxRectangle width="120" height="120" as="alternateBounds" />
          </mxGeometry>
        </mxCell>
        <mxCell id="YzzwRAZCWaj9JnVzKXwe-561" value="" style="swimlane;swimlaneHead=0;swimlaneBody=0;fontStyle=0;connectable=0;strokeColor=inherit;fillColor=none;startSize=0;collapsible=0;recursiveResize=0;expand=0;fontSize=16;" vertex="1" parent="YzzwRAZCWaj9JnVzKXwe-559">
          <mxGeometry x="160" width="120" height="120" as="geometry">
            <mxRectangle width="120" height="120" as="alternateBounds" />
          </mxGeometry>
        </mxCell>
        <mxCell id="YzzwRAZCWaj9JnVzKXwe-562" value="" style="swimlane;swimlaneHead=0;swimlaneBody=0;fontStyle=0;connectable=0;strokeColor=inherit;fillColor=none;startSize=0;collapsible=0;recursiveResize=0;expand=0;fontSize=16;" vertex="1" parent="YzzwRAZCWaj9JnVzKXwe-559">
          <mxGeometry x="280" width="120" height="120" as="geometry">
            <mxRectangle width="120" height="120" as="alternateBounds" />
          </mxGeometry>
        </mxCell>
        <mxCell id="YzzwRAZCWaj9JnVzKXwe-563" value="&lt;span style=&quot;font-size: 135px;&quot;&gt;&lt;b&gt;&lt;i&gt;Listagem de clientes&lt;/i&gt;&lt;/b&gt;&lt;/span&gt;" style="text;html=1;align=center;verticalAlign=middle;resizable=0;points=[];autosize=1;strokeColor=none;fillColor=none;" vertex="1" parent="1">
          <mxGeometry x="-4777" y="-1548.5" width="1350" height="180" as="geometry" />
        </mxCell>
        <mxCell id="YzzwRAZCWaj9JnVzKXwe-564" value="" style="rounded=1;whiteSpace=wrap;html=1;rotation=90;fillColor=#000000;" vertex="1" parent="1">
          <mxGeometry x="-5230" y="-930" width="1290" height="670" as="geometry" />
        </mxCell>
        <mxCell id="YzzwRAZCWaj9JnVzKXwe-565" value="" style="rounded=1;whiteSpace=wrap;html=1;rotation=90;fillColor=#e1d5e7;strokeColor=#9673a6;" vertex="1" parent="1">
          <mxGeometry x="-5186" y="-929" width="1203" height="650" as="geometry" />
        </mxCell>
        <mxCell id="YzzwRAZCWaj9JnVzKXwe-566" value="&lt;span style=&quot;font-size: 36px;&quot;&gt;III&lt;/span&gt;" style="text;html=1;align=center;verticalAlign=middle;resizable=0;points=[];autosize=1;strokeColor=none;fillColor=none;" vertex="1" parent="1">
          <mxGeometry x="-4795" y="-60" width="50" height="60" as="geometry" />
        </mxCell>
        <mxCell id="YzzwRAZCWaj9JnVzKXwe-567" value="" style="endArrow=none;html=1;rounded=0;exitX=0.956;exitY=0.992;exitDx=0;exitDy=0;exitPerimeter=0;entryX=0.957;entryY=0.011;entryDx=0;entryDy=0;entryPerimeter=0;strokeWidth=4;" edge="1" parent="1" source="YzzwRAZCWaj9JnVzKXwe-565" target="YzzwRAZCWaj9JnVzKXwe-565">
          <mxGeometry width="50" height="50" relative="1" as="geometry">
            <mxPoint x="-4405" y="-440" as="sourcePoint" />
            <mxPoint x="-4275" y="-55" as="targetPoint" />
            <Array as="points" />
          </mxGeometry>
        </mxCell>
        <mxCell id="YzzwRAZCWaj9JnVzKXwe-568" value="" style="rounded=1;whiteSpace=wrap;html=1;strokeWidth=3;fillColor=#e1d5e7;strokeColor=#0D0D0D;" vertex="1" parent="1">
          <mxGeometry x="-4599.5" y="-45" width="30" height="30" as="geometry" />
        </mxCell>
        <mxCell id="YzzwRAZCWaj9JnVzKXwe-569" value="" style="triangle;whiteSpace=wrap;html=1;strokeWidth=3;fillColor=#e1d5e7;strokeColor=#000000;" vertex="1" parent="1">
          <mxGeometry x="-4395" y="-45" width="20" height="30" as="geometry" />
        </mxCell>
        <mxCell id="YzzwRAZCWaj9JnVzKXwe-570" value="" style="endArrow=none;html=1;rounded=0;exitX=0.028;exitY=0.972;exitDx=0;exitDy=0;exitPerimeter=0;entryX=0.026;entryY=0.031;entryDx=0;entryDy=0;entryPerimeter=0;strokeWidth=3;" edge="1" parent="1" source="YzzwRAZCWaj9JnVzKXwe-565" target="YzzwRAZCWaj9JnVzKXwe-565">
          <mxGeometry width="50" height="50" relative="1" as="geometry">
            <mxPoint x="-4878.949999999999" y="-1170" as="sourcePoint" />
            <mxPoint x="-4290.049999999999" y="-1166.3909999999996" as="targetPoint" />
          </mxGeometry>
        </mxCell>
        <mxCell id="YzzwRAZCWaj9JnVzKXwe-571" value="&lt;font style=&quot;font-size: 18px;&quot;&gt;09:09&lt;/font&gt;" style="text;html=1;align=center;verticalAlign=middle;whiteSpace=wrap;rounded=1;strokeWidth=22;fillColor=default;perimeterSpacing=0;shadow=0;glass=0;" vertex="1" parent="1">
          <mxGeometry x="-4845" y="-1196" width="60" height="20" as="geometry" />
        </mxCell>
        <mxCell id="YzzwRAZCWaj9JnVzKXwe-572" value="" style="html=1;verticalLabelPosition=bottom;align=center;labelBackgroundColor=#ffffff;verticalAlign=top;strokeWidth=2;strokeColor=#000000;shadow=0;dashed=0;shape=mxgraph.ios7.icons.battery;rotation=-90;" vertex="1" parent="1">
          <mxGeometry x="-4355" y="-1196" width="20" height="16" as="geometry" />
        </mxCell>
        <mxCell id="YzzwRAZCWaj9JnVzKXwe-573" value="&lt;p style=&quot;line-height: 230%;&quot;&gt;&lt;font style=&quot;font-size: 15px;&quot;&gt;50&lt;/font&gt;&lt;font style=&quot;font-size: 15px;&quot;&gt;%&lt;/font&gt;&lt;/p&gt;" style="text;html=1;align=center;verticalAlign=middle;resizable=0;points=[];autosize=1;strokeColor=none;fillColor=none;strokeWidth=4;" vertex="1" parent="1">
          <mxGeometry x="-4405" y="-1223" width="50" height="70" as="geometry" />
        </mxCell>
        <mxCell id="YzzwRAZCWaj9JnVzKXwe-574" value="" style="rounded=0;whiteSpace=wrap;html=1;rotation=90;strokeWidth=1;fillColor=#1B1D1F;strokeColor=#000000;" vertex="1" parent="1">
          <mxGeometry x="-4275" y="-1020" width="60" height="10" as="geometry" />
        </mxCell>
        <mxCell id="YzzwRAZCWaj9JnVzKXwe-575" value="" style="rounded=0;whiteSpace=wrap;html=1;rotation=90;strokeWidth=1;fillColor=#1B1D1F;strokeColor=#000000;" vertex="1" parent="1">
          <mxGeometry x="-4275" y="-940" width="60" height="10" as="geometry" />
        </mxCell>
        <mxCell id="YzzwRAZCWaj9JnVzKXwe-576" value="" style="rounded=0;whiteSpace=wrap;html=1;rotation=90;strokeWidth=1;fillColor=#1B1D1F;strokeColor=#000000;" vertex="1" parent="1">
          <mxGeometry x="-4275" y="-800" width="60" height="10" as="geometry" />
        </mxCell>
        <mxCell id="YzzwRAZCWaj9JnVzKXwe-577" value="&lt;span style=&quot;font-size: 48px;&quot;&gt;Clientes&lt;/span&gt;" style="text;html=1;align=center;verticalAlign=middle;whiteSpace=wrap;rounded=0;" vertex="1" parent="1">
          <mxGeometry x="-4787" y="-1090" width="404.5" height="30" as="geometry" />
        </mxCell>
        <mxCell id="YzzwRAZCWaj9JnVzKXwe-596" value="" style="shape=partialRectangle;whiteSpace=wrap;html=1;left=0;right=0;fillColor=none;strokeWidth=4;" vertex="1" parent="1">
          <mxGeometry x="-4865" y="-990" width="565" height="60" as="geometry" />
        </mxCell>
        <mxCell id="YzzwRAZCWaj9JnVzKXwe-609" value="" style="shape=partialRectangle;whiteSpace=wrap;html=1;left=0;right=0;fillColor=none;strokeWidth=4;" vertex="1" parent="1">
          <mxGeometry x="-4865" y="-929" width="565" height="60" as="geometry" />
        </mxCell>
        <mxCell id="YzzwRAZCWaj9JnVzKXwe-610" value="" style="shape=partialRectangle;whiteSpace=wrap;html=1;left=0;right=0;fillColor=none;strokeWidth=4;" vertex="1" parent="1">
          <mxGeometry x="-4862.75" y="-869" width="565" height="60" as="geometry" />
        </mxCell>
        <mxCell id="YzzwRAZCWaj9JnVzKXwe-611" value="" style="shape=partialRectangle;whiteSpace=wrap;html=1;left=0;right=0;fillColor=none;strokeWidth=4;" vertex="1" parent="1">
          <mxGeometry x="-4862.75" y="-808" width="565" height="60" as="geometry" />
        </mxCell>
        <mxCell id="YzzwRAZCWaj9JnVzKXwe-612" value="" style="shape=partialRectangle;whiteSpace=wrap;html=1;left=0;right=0;fillColor=none;strokeWidth=4;" vertex="1" parent="1">
          <mxGeometry x="-4861.87" y="-748" width="565" height="60" as="geometry" />
        </mxCell>
        <mxCell id="YzzwRAZCWaj9JnVzKXwe-613" value="" style="shape=partialRectangle;whiteSpace=wrap;html=1;left=0;right=0;fillColor=none;strokeWidth=4;" vertex="1" parent="1">
          <mxGeometry x="-4861.87" y="-687" width="565" height="60" as="geometry" />
        </mxCell>
        <mxCell id="YzzwRAZCWaj9JnVzKXwe-614" value="" style="shape=partialRectangle;whiteSpace=wrap;html=1;left=0;right=0;fillColor=none;strokeWidth=4;" vertex="1" parent="1">
          <mxGeometry x="-4859.62" y="-627" width="565" height="60" as="geometry" />
        </mxCell>
        <mxCell id="YzzwRAZCWaj9JnVzKXwe-615" value="" style="shape=partialRectangle;whiteSpace=wrap;html=1;left=0;right=0;fillColor=none;strokeWidth=4;" vertex="1" parent="1">
          <mxGeometry x="-4859.62" y="-566" width="565" height="60" as="geometry" />
        </mxCell>
        <mxCell id="YzzwRAZCWaj9JnVzKXwe-616" value="" style="shape=partialRectangle;whiteSpace=wrap;html=1;left=0;right=0;fillColor=none;strokeWidth=4;" vertex="1" parent="1">
          <mxGeometry x="-4860.75" y="-506" width="565" height="60" as="geometry" />
        </mxCell>
        <mxCell id="YzzwRAZCWaj9JnVzKXwe-617" value="" style="shape=partialRectangle;whiteSpace=wrap;html=1;left=0;right=0;fillColor=none;strokeWidth=4;" vertex="1" parent="1">
          <mxGeometry x="-4860.75" y="-445" width="565" height="60" as="geometry" />
        </mxCell>
        <mxCell id="YzzwRAZCWaj9JnVzKXwe-618" value="" style="shape=partialRectangle;whiteSpace=wrap;html=1;left=0;right=0;fillColor=none;strokeWidth=4;" vertex="1" parent="1">
          <mxGeometry x="-4858.5" y="-385" width="565" height="60" as="geometry" />
        </mxCell>
        <mxCell id="YzzwRAZCWaj9JnVzKXwe-619" value="" style="shape=partialRectangle;whiteSpace=wrap;html=1;left=0;right=0;fillColor=none;strokeWidth=4;" vertex="1" parent="1">
          <mxGeometry x="-4858.5" y="-324" width="565" height="60" as="geometry" />
        </mxCell>
        <mxCell id="YzzwRAZCWaj9JnVzKXwe-620" value="&lt;font style=&quot;font-size: 36px;&quot;&gt;Cliente sobrenome&lt;/font&gt;" style="text;strokeColor=none;fillColor=none;html=1;fontSize=24;fontStyle=1;verticalAlign=middle;align=center;strokeWidth=4;" vertex="1" parent="1">
          <mxGeometry x="-4867" y="-980" width="317" height="40" as="geometry" />
        </mxCell>
        <mxCell id="YzzwRAZCWaj9JnVzKXwe-622" value="&lt;font style=&quot;font-size: 36px;&quot;&gt;Cliente sobrenome&lt;/font&gt;" style="text;strokeColor=none;fillColor=none;html=1;fontSize=24;fontStyle=1;verticalAlign=middle;align=center;strokeWidth=4;" vertex="1" parent="1">
          <mxGeometry x="-4867" y="-919" width="317" height="40" as="geometry" />
        </mxCell>
        <mxCell id="YzzwRAZCWaj9JnVzKXwe-623" value="&lt;font style=&quot;font-size: 36px;&quot;&gt;Cliente sobrenome&lt;/font&gt;" style="text;strokeColor=none;fillColor=none;html=1;fontSize=24;fontStyle=1;verticalAlign=middle;align=center;strokeWidth=4;" vertex="1" parent="1">
          <mxGeometry x="-4867" y="-859" width="317" height="40" as="geometry" />
        </mxCell>
        <mxCell id="YzzwRAZCWaj9JnVzKXwe-624" value="&lt;font style=&quot;font-size: 36px;&quot;&gt;Cliente sobrenome&lt;/font&gt;" style="text;strokeColor=none;fillColor=none;html=1;fontSize=24;fontStyle=1;verticalAlign=middle;align=center;strokeWidth=4;" vertex="1" parent="1">
          <mxGeometry x="-4865.5" y="-798" width="317" height="40" as="geometry" />
        </mxCell>
        <mxCell id="YzzwRAZCWaj9JnVzKXwe-625" value="&lt;font style=&quot;font-size: 36px;&quot;&gt;Cliente sobrenome&lt;/font&gt;" style="text;strokeColor=none;fillColor=none;html=1;fontSize=24;fontStyle=1;verticalAlign=middle;align=center;strokeWidth=4;" vertex="1" parent="1">
          <mxGeometry x="-4867" y="-738" width="317" height="40" as="geometry" />
        </mxCell>
        <mxCell id="YzzwRAZCWaj9JnVzKXwe-626" value="&lt;font style=&quot;font-size: 36px;&quot;&gt;Cliente sobrenome&lt;/font&gt;" style="text;strokeColor=none;fillColor=none;html=1;fontSize=24;fontStyle=1;verticalAlign=middle;align=center;strokeWidth=4;" vertex="1" parent="1">
          <mxGeometry x="-4865.5" y="-677" width="317" height="40" as="geometry" />
        </mxCell>
        <mxCell id="YzzwRAZCWaj9JnVzKXwe-629" value="&lt;font style=&quot;font-size: 36px;&quot;&gt;Cliente sobrenome&lt;/font&gt;" style="text;strokeColor=none;fillColor=none;html=1;fontSize=24;fontStyle=1;verticalAlign=middle;align=center;strokeWidth=4;" vertex="1" parent="1">
          <mxGeometry x="-4867" y="-615" width="317" height="40" as="geometry" />
        </mxCell>
        <mxCell id="YzzwRAZCWaj9JnVzKXwe-630" value="&lt;font style=&quot;font-size: 36px;&quot;&gt;Cliente sobrenome&lt;/font&gt;" style="text;strokeColor=none;fillColor=none;html=1;fontSize=24;fontStyle=1;verticalAlign=middle;align=center;strokeWidth=4;" vertex="1" parent="1">
          <mxGeometry x="-4865.5" y="-556" width="317" height="40" as="geometry" />
        </mxCell>
        <mxCell id="YzzwRAZCWaj9JnVzKXwe-631" value="&lt;font style=&quot;font-size: 36px;&quot;&gt;Cliente sobrenome&lt;/font&gt;" style="text;strokeColor=none;fillColor=none;html=1;fontSize=24;fontStyle=1;verticalAlign=middle;align=center;strokeWidth=4;" vertex="1" parent="1">
          <mxGeometry x="-4867" y="-496" width="317" height="40" as="geometry" />
        </mxCell>
        <mxCell id="YzzwRAZCWaj9JnVzKXwe-632" value="&lt;font style=&quot;font-size: 36px;&quot;&gt;Cliente sobrenome&lt;/font&gt;" style="text;strokeColor=none;fillColor=none;html=1;fontSize=24;fontStyle=1;verticalAlign=middle;align=center;strokeWidth=4;" vertex="1" parent="1">
          <mxGeometry x="-4865.5" y="-435" width="317" height="40" as="geometry" />
        </mxCell>
        <mxCell id="YzzwRAZCWaj9JnVzKXwe-633" value="&lt;font style=&quot;font-size: 36px;&quot;&gt;Cliente sobrenome&lt;/font&gt;" style="text;strokeColor=none;fillColor=none;html=1;fontSize=24;fontStyle=1;verticalAlign=middle;align=center;strokeWidth=4;" vertex="1" parent="1">
          <mxGeometry x="-4867" y="-375" width="317" height="40" as="geometry" />
        </mxCell>
        <mxCell id="YzzwRAZCWaj9JnVzKXwe-634" value="&lt;font style=&quot;font-size: 36px;&quot;&gt;Cliente sobrenome&lt;/font&gt;" style="text;strokeColor=none;fillColor=none;html=1;fontSize=24;fontStyle=1;verticalAlign=middle;align=center;strokeWidth=4;" vertex="1" parent="1">
          <mxGeometry x="-4867" y="-314" width="317" height="40" as="geometry" />
        </mxCell>
        <mxCell id="YzzwRAZCWaj9JnVzKXwe-635" value="" style="shape=image;verticalLabelPosition=bottom;labelBackgroundColor=default;verticalAlign=top;aspect=fixed;imageAspect=0;image=https://static.vecteezy.com/system/resources/previews/020/790/903/non_2x/trash-can-icon-for-web-ui-design-vector.jpg;" vertex="1" parent="1">
          <mxGeometry x="-4356" y="-988" width="56" height="56" as="geometry" />
        </mxCell>
        <mxCell id="YzzwRAZCWaj9JnVzKXwe-636" value="" style="shape=image;verticalLabelPosition=bottom;labelBackgroundColor=default;verticalAlign=top;aspect=fixed;imageAspect=0;image=https://static.vecteezy.com/system/resources/previews/020/790/903/non_2x/trash-can-icon-for-web-ui-design-vector.jpg;" vertex="1" parent="1">
          <mxGeometry x="-4356" y="-927" width="56" height="56" as="geometry" />
        </mxCell>
        <mxCell id="YzzwRAZCWaj9JnVzKXwe-637" value="" style="shape=image;verticalLabelPosition=bottom;labelBackgroundColor=default;verticalAlign=top;aspect=fixed;imageAspect=0;image=https://static.vecteezy.com/system/resources/previews/020/790/903/non_2x/trash-can-icon-for-web-ui-design-vector.jpg;" vertex="1" parent="1">
          <mxGeometry x="-4356" y="-866.5" width="55" height="55" as="geometry" />
        </mxCell>
        <mxCell id="YzzwRAZCWaj9JnVzKXwe-638" value="" style="shape=image;verticalLabelPosition=bottom;labelBackgroundColor=default;verticalAlign=top;aspect=fixed;imageAspect=0;image=https://static.vecteezy.com/system/resources/previews/020/790/903/non_2x/trash-can-icon-for-web-ui-design-vector.jpg;" vertex="1" parent="1">
          <mxGeometry x="-4356" y="-806" width="56" height="56" as="geometry" />
        </mxCell>
        <mxCell id="YzzwRAZCWaj9JnVzKXwe-639" value="" style="shape=image;verticalLabelPosition=bottom;labelBackgroundColor=default;verticalAlign=top;aspect=fixed;imageAspect=0;image=https://static.vecteezy.com/system/resources/previews/020/790/903/non_2x/trash-can-icon-for-web-ui-design-vector.jpg;" vertex="1" parent="1">
          <mxGeometry x="-4356" y="-746" width="56" height="56" as="geometry" />
        </mxCell>
        <mxCell id="YzzwRAZCWaj9JnVzKXwe-640" value="" style="shape=image;verticalLabelPosition=bottom;labelBackgroundColor=default;verticalAlign=top;aspect=fixed;imageAspect=0;image=https://static.vecteezy.com/system/resources/previews/020/790/903/non_2x/trash-can-icon-for-web-ui-design-vector.jpg;" vertex="1" parent="1">
          <mxGeometry x="-4355" y="-685" width="56" height="56" as="geometry" />
        </mxCell>
        <mxCell id="YzzwRAZCWaj9JnVzKXwe-641" value="" style="shape=image;verticalLabelPosition=bottom;labelBackgroundColor=default;verticalAlign=top;aspect=fixed;imageAspect=0;image=https://static.vecteezy.com/system/resources/previews/020/790/903/non_2x/trash-can-icon-for-web-ui-design-vector.jpg;" vertex="1" parent="1">
          <mxGeometry x="-4355" y="-625" width="56" height="56" as="geometry" />
        </mxCell>
        <mxCell id="YzzwRAZCWaj9JnVzKXwe-642" value="" style="shape=image;verticalLabelPosition=bottom;labelBackgroundColor=default;verticalAlign=top;aspect=fixed;imageAspect=0;image=https://static.vecteezy.com/system/resources/previews/020/790/903/non_2x/trash-can-icon-for-web-ui-design-vector.jpg;" vertex="1" parent="1">
          <mxGeometry x="-4355" y="-564" width="56" height="56" as="geometry" />
        </mxCell>
        <mxCell id="YzzwRAZCWaj9JnVzKXwe-643" value="" style="shape=image;verticalLabelPosition=bottom;labelBackgroundColor=default;verticalAlign=top;aspect=fixed;imageAspect=0;image=https://static.vecteezy.com/system/resources/previews/020/790/903/non_2x/trash-can-icon-for-web-ui-design-vector.jpg;" vertex="1" parent="1">
          <mxGeometry x="-4355" y="-504" width="56" height="56" as="geometry" />
        </mxCell>
        <mxCell id="YzzwRAZCWaj9JnVzKXwe-644" value="" style="shape=image;verticalLabelPosition=bottom;labelBackgroundColor=default;verticalAlign=top;aspect=fixed;imageAspect=0;image=https://static.vecteezy.com/system/resources/previews/020/790/903/non_2x/trash-can-icon-for-web-ui-design-vector.jpg;" vertex="1" parent="1">
          <mxGeometry x="-4355" y="-443" width="56" height="56" as="geometry" />
        </mxCell>
        <mxCell id="YzzwRAZCWaj9JnVzKXwe-645" value="" style="shape=image;verticalLabelPosition=bottom;labelBackgroundColor=default;verticalAlign=top;aspect=fixed;imageAspect=0;image=https://static.vecteezy.com/system/resources/previews/020/790/903/non_2x/trash-can-icon-for-web-ui-design-vector.jpg;" vertex="1" parent="1">
          <mxGeometry x="-4355" y="-383" width="56" height="56" as="geometry" />
        </mxCell>
        <mxCell id="YzzwRAZCWaj9JnVzKXwe-646" value="" style="shape=image;verticalLabelPosition=bottom;labelBackgroundColor=default;verticalAlign=top;aspect=fixed;imageAspect=0;image=https://static.vecteezy.com/system/resources/previews/020/790/903/non_2x/trash-can-icon-for-web-ui-design-vector.jpg;" vertex="1" parent="1">
          <mxGeometry x="-4355" y="-322" width="56" height="56" as="geometry" />
        </mxCell>
        <mxCell id="YzzwRAZCWaj9JnVzKXwe-647" value="" style="shape=image;verticalLabelPosition=bottom;labelBackgroundColor=default;verticalAlign=top;aspect=fixed;imageAspect=0;image=https://cdn-icons-png.flaticon.com/512/4140/4140115.png;" vertex="1" parent="1">
          <mxGeometry x="-4413.5" y="-985.5" width="51" height="51" as="geometry" />
        </mxCell>
        <mxCell id="YzzwRAZCWaj9JnVzKXwe-648" value="" style="shape=image;verticalLabelPosition=bottom;labelBackgroundColor=default;verticalAlign=top;aspect=fixed;imageAspect=0;image=https://cdn-icons-png.flaticon.com/512/4140/4140115.png;" vertex="1" parent="1">
          <mxGeometry x="-4413.5" y="-924.5" width="51" height="51" as="geometry" />
        </mxCell>
        <mxCell id="YzzwRAZCWaj9JnVzKXwe-649" value="" style="shape=image;verticalLabelPosition=bottom;labelBackgroundColor=default;verticalAlign=top;aspect=fixed;imageAspect=0;image=https://cdn-icons-png.flaticon.com/512/4140/4140115.png;" vertex="1" parent="1">
          <mxGeometry x="-4413.5" y="-864.5" width="51" height="51" as="geometry" />
        </mxCell>
        <mxCell id="YzzwRAZCWaj9JnVzKXwe-650" value="" style="shape=image;verticalLabelPosition=bottom;labelBackgroundColor=default;verticalAlign=top;aspect=fixed;imageAspect=0;image=https://cdn-icons-png.flaticon.com/512/4140/4140115.png;" vertex="1" parent="1">
          <mxGeometry x="-4413.5" y="-803.5" width="51" height="51" as="geometry" />
        </mxCell>
        <mxCell id="YzzwRAZCWaj9JnVzKXwe-651" value="" style="shape=image;verticalLabelPosition=bottom;labelBackgroundColor=default;verticalAlign=top;aspect=fixed;imageAspect=0;image=https://cdn-icons-png.flaticon.com/512/4140/4140115.png;" vertex="1" parent="1">
          <mxGeometry x="-4413.5" y="-743.5" width="51" height="51" as="geometry" />
        </mxCell>
        <mxCell id="YzzwRAZCWaj9JnVzKXwe-652" value="" style="shape=image;verticalLabelPosition=bottom;labelBackgroundColor=default;verticalAlign=top;aspect=fixed;imageAspect=0;image=https://cdn-icons-png.flaticon.com/512/4140/4140115.png;" vertex="1" parent="1">
          <mxGeometry x="-4413.5" y="-682.5" width="51" height="51" as="geometry" />
        </mxCell>
        <mxCell id="YzzwRAZCWaj9JnVzKXwe-653" value="" style="shape=image;verticalLabelPosition=bottom;labelBackgroundColor=default;verticalAlign=top;aspect=fixed;imageAspect=0;image=https://cdn-icons-png.flaticon.com/512/4140/4140115.png;" vertex="1" parent="1">
          <mxGeometry x="-4413.5" y="-620.5" width="51" height="51" as="geometry" />
        </mxCell>
        <mxCell id="YzzwRAZCWaj9JnVzKXwe-654" value="" style="shape=image;verticalLabelPosition=bottom;labelBackgroundColor=default;verticalAlign=top;aspect=fixed;imageAspect=0;image=https://cdn-icons-png.flaticon.com/512/4140/4140115.png;" vertex="1" parent="1">
          <mxGeometry x="-4413.5" y="-561.5" width="51" height="51" as="geometry" />
        </mxCell>
        <mxCell id="YzzwRAZCWaj9JnVzKXwe-655" value="" style="shape=image;verticalLabelPosition=bottom;labelBackgroundColor=default;verticalAlign=top;aspect=fixed;imageAspect=0;image=https://cdn-icons-png.flaticon.com/512/4140/4140115.png;" vertex="1" parent="1">
          <mxGeometry x="-4413.5" y="-501.5" width="51" height="51" as="geometry" />
        </mxCell>
        <mxCell id="YzzwRAZCWaj9JnVzKXwe-656" value="" style="shape=image;verticalLabelPosition=bottom;labelBackgroundColor=default;verticalAlign=top;aspect=fixed;imageAspect=0;image=https://cdn-icons-png.flaticon.com/512/4140/4140115.png;" vertex="1" parent="1">
          <mxGeometry x="-4413.5" y="-440.5" width="51" height="51" as="geometry" />
        </mxCell>
        <mxCell id="YzzwRAZCWaj9JnVzKXwe-657" value="" style="shape=image;verticalLabelPosition=bottom;labelBackgroundColor=default;verticalAlign=top;aspect=fixed;imageAspect=0;image=https://cdn-icons-png.flaticon.com/512/4140/4140115.png;" vertex="1" parent="1">
          <mxGeometry x="-4413.5" y="-380.5" width="51" height="51" as="geometry" />
        </mxCell>
        <mxCell id="YzzwRAZCWaj9JnVzKXwe-658" value="" style="shape=image;verticalLabelPosition=bottom;labelBackgroundColor=default;verticalAlign=top;aspect=fixed;imageAspect=0;image=https://cdn-icons-png.flaticon.com/512/4140/4140115.png;" vertex="1" parent="1">
          <mxGeometry x="-4413.5" y="-319.5" width="51" height="51" as="geometry" />
        </mxCell>
        <mxCell id="YzzwRAZCWaj9JnVzKXwe-659" value="" style="whiteSpace=wrap;html=1;aspect=fixed;fillColor=#e1d5e7;strokeColor=#9673a6;" vertex="1" parent="1">
          <mxGeometry x="-4859.62" y="-250" width="80" height="80" as="geometry" />
        </mxCell>
        <mxCell id="YzzwRAZCWaj9JnVzKXwe-660" value="&lt;font color=&quot;#cc99ff&quot; style=&quot;font-size: 100px;&quot;&gt;+&lt;/font&gt;" style="text;strokeColor=none;fillColor=none;html=1;fontSize=24;fontStyle=1;verticalAlign=middle;align=center;" vertex="1" parent="1">
          <mxGeometry x="-4865.5" y="-230" width="98.5" height="40" as="geometry" />
        </mxCell>
        <mxCell id="YzzwRAZCWaj9JnVzKXwe-661" value="" style="rounded=1;whiteSpace=wrap;html=1;strokeWidth=22;fillColor=#e1d5e7;strokeColor=#000000;" vertex="1" parent="1">
          <mxGeometry x="-4050" y="-1234" width="1610" height="1260" as="geometry" />
        </mxCell>
        <mxCell id="YzzwRAZCWaj9JnVzKXwe-662" value="&lt;span style=&quot;font-size: 48px;&quot;&gt;Clientes&lt;/span&gt;" style="text;html=1;align=center;verticalAlign=middle;whiteSpace=wrap;rounded=0;" vertex="1" parent="1">
          <mxGeometry x="-3447.25" y="-1100" width="404.5" height="30" as="geometry" />
        </mxCell>
        <mxCell id="YzzwRAZCWaj9JnVzKXwe-663" value="" style="shape=partialRectangle;whiteSpace=wrap;html=1;left=0;right=0;fillColor=none;strokeWidth=4;" vertex="1" parent="1">
          <mxGeometry x="-3938" y="-990" width="565" height="60" as="geometry" />
        </mxCell>
        <mxCell id="YzzwRAZCWaj9JnVzKXwe-664" value="" style="shape=partialRectangle;whiteSpace=wrap;html=1;left=0;right=0;fillColor=none;strokeWidth=4;" vertex="1" parent="1">
          <mxGeometry x="-3938" y="-929" width="565" height="60" as="geometry" />
        </mxCell>
        <mxCell id="YzzwRAZCWaj9JnVzKXwe-665" value="" style="shape=partialRectangle;whiteSpace=wrap;html=1;left=0;right=0;fillColor=none;strokeWidth=4;" vertex="1" parent="1">
          <mxGeometry x="-3935.75" y="-869" width="565" height="60" as="geometry" />
        </mxCell>
        <mxCell id="YzzwRAZCWaj9JnVzKXwe-666" value="" style="shape=partialRectangle;whiteSpace=wrap;html=1;left=0;right=0;fillColor=none;strokeWidth=4;" vertex="1" parent="1">
          <mxGeometry x="-3935.75" y="-808" width="565" height="60" as="geometry" />
        </mxCell>
        <mxCell id="YzzwRAZCWaj9JnVzKXwe-667" value="" style="shape=partialRectangle;whiteSpace=wrap;html=1;left=0;right=0;fillColor=none;strokeWidth=4;" vertex="1" parent="1">
          <mxGeometry x="-3934.87" y="-748" width="565" height="60" as="geometry" />
        </mxCell>
        <mxCell id="YzzwRAZCWaj9JnVzKXwe-668" value="" style="shape=partialRectangle;whiteSpace=wrap;html=1;left=0;right=0;fillColor=none;strokeWidth=4;" vertex="1" parent="1">
          <mxGeometry x="-3934.87" y="-687" width="565" height="60" as="geometry" />
        </mxCell>
        <mxCell id="YzzwRAZCWaj9JnVzKXwe-669" value="" style="shape=partialRectangle;whiteSpace=wrap;html=1;left=0;right=0;fillColor=none;strokeWidth=4;" vertex="1" parent="1">
          <mxGeometry x="-3932.62" y="-627" width="565" height="60" as="geometry" />
        </mxCell>
        <mxCell id="YzzwRAZCWaj9JnVzKXwe-670" value="" style="shape=partialRectangle;whiteSpace=wrap;html=1;left=0;right=0;fillColor=none;strokeWidth=4;" vertex="1" parent="1">
          <mxGeometry x="-3932.62" y="-566" width="565" height="60" as="geometry" />
        </mxCell>
        <mxCell id="YzzwRAZCWaj9JnVzKXwe-671" value="" style="shape=partialRectangle;whiteSpace=wrap;html=1;left=0;right=0;fillColor=none;strokeWidth=4;" vertex="1" parent="1">
          <mxGeometry x="-3933.75" y="-506" width="565" height="60" as="geometry" />
        </mxCell>
        <mxCell id="YzzwRAZCWaj9JnVzKXwe-672" value="" style="shape=partialRectangle;whiteSpace=wrap;html=1;left=0;right=0;fillColor=none;strokeWidth=4;" vertex="1" parent="1">
          <mxGeometry x="-3933.75" y="-445" width="565" height="60" as="geometry" />
        </mxCell>
        <mxCell id="YzzwRAZCWaj9JnVzKXwe-673" value="" style="shape=partialRectangle;whiteSpace=wrap;html=1;left=0;right=0;fillColor=none;strokeWidth=4;" vertex="1" parent="1">
          <mxGeometry x="-3931.5" y="-385" width="565" height="60" as="geometry" />
        </mxCell>
        <mxCell id="YzzwRAZCWaj9JnVzKXwe-674" value="" style="shape=partialRectangle;whiteSpace=wrap;html=1;left=0;right=0;fillColor=none;strokeWidth=4;" vertex="1" parent="1">
          <mxGeometry x="-3931.5" y="-324" width="565" height="60" as="geometry" />
        </mxCell>
        <mxCell id="YzzwRAZCWaj9JnVzKXwe-675" value="&lt;font style=&quot;font-size: 36px;&quot;&gt;Cliente sobrenome&lt;/font&gt;" style="text;strokeColor=none;fillColor=none;html=1;fontSize=24;fontStyle=1;verticalAlign=middle;align=center;strokeWidth=4;" vertex="1" parent="1">
          <mxGeometry x="-3940" y="-980" width="317" height="40" as="geometry" />
        </mxCell>
        <mxCell id="YzzwRAZCWaj9JnVzKXwe-676" value="&lt;font style=&quot;font-size: 36px;&quot;&gt;Cliente sobrenome&lt;/font&gt;" style="text;strokeColor=none;fillColor=none;html=1;fontSize=24;fontStyle=1;verticalAlign=middle;align=center;strokeWidth=4;" vertex="1" parent="1">
          <mxGeometry x="-3940" y="-919" width="317" height="40" as="geometry" />
        </mxCell>
        <mxCell id="YzzwRAZCWaj9JnVzKXwe-677" value="&lt;font style=&quot;font-size: 36px;&quot;&gt;Cliente sobrenome&lt;/font&gt;" style="text;strokeColor=none;fillColor=none;html=1;fontSize=24;fontStyle=1;verticalAlign=middle;align=center;strokeWidth=4;" vertex="1" parent="1">
          <mxGeometry x="-3940" y="-859" width="317" height="40" as="geometry" />
        </mxCell>
        <mxCell id="YzzwRAZCWaj9JnVzKXwe-678" value="&lt;font style=&quot;font-size: 36px;&quot;&gt;Cliente sobrenome&lt;/font&gt;" style="text;strokeColor=none;fillColor=none;html=1;fontSize=24;fontStyle=1;verticalAlign=middle;align=center;strokeWidth=4;" vertex="1" parent="1">
          <mxGeometry x="-3938.5" y="-798" width="317" height="40" as="geometry" />
        </mxCell>
        <mxCell id="YzzwRAZCWaj9JnVzKXwe-679" value="&lt;font style=&quot;font-size: 36px;&quot;&gt;Cliente sobrenome&lt;/font&gt;" style="text;strokeColor=none;fillColor=none;html=1;fontSize=24;fontStyle=1;verticalAlign=middle;align=center;strokeWidth=4;" vertex="1" parent="1">
          <mxGeometry x="-3940" y="-738" width="317" height="40" as="geometry" />
        </mxCell>
        <mxCell id="YzzwRAZCWaj9JnVzKXwe-680" value="&lt;font style=&quot;font-size: 36px;&quot;&gt;Cliente sobrenome&lt;/font&gt;" style="text;strokeColor=none;fillColor=none;html=1;fontSize=24;fontStyle=1;verticalAlign=middle;align=center;strokeWidth=4;" vertex="1" parent="1">
          <mxGeometry x="-3938.5" y="-677" width="317" height="40" as="geometry" />
        </mxCell>
        <mxCell id="YzzwRAZCWaj9JnVzKXwe-681" value="&lt;font style=&quot;font-size: 36px;&quot;&gt;Cliente sobrenome&lt;/font&gt;" style="text;strokeColor=none;fillColor=none;html=1;fontSize=24;fontStyle=1;verticalAlign=middle;align=center;strokeWidth=4;" vertex="1" parent="1">
          <mxGeometry x="-3940" y="-615" width="317" height="40" as="geometry" />
        </mxCell>
        <mxCell id="YzzwRAZCWaj9JnVzKXwe-682" value="&lt;font style=&quot;font-size: 36px;&quot;&gt;Cliente sobrenome&lt;/font&gt;" style="text;strokeColor=none;fillColor=none;html=1;fontSize=24;fontStyle=1;verticalAlign=middle;align=center;strokeWidth=4;" vertex="1" parent="1">
          <mxGeometry x="-3938.5" y="-556" width="317" height="40" as="geometry" />
        </mxCell>
        <mxCell id="YzzwRAZCWaj9JnVzKXwe-683" value="&lt;font style=&quot;font-size: 36px;&quot;&gt;Cliente sobrenome&lt;/font&gt;" style="text;strokeColor=none;fillColor=none;html=1;fontSize=24;fontStyle=1;verticalAlign=middle;align=center;strokeWidth=4;" vertex="1" parent="1">
          <mxGeometry x="-3940" y="-496" width="317" height="40" as="geometry" />
        </mxCell>
        <mxCell id="YzzwRAZCWaj9JnVzKXwe-684" value="&lt;font style=&quot;font-size: 36px;&quot;&gt;Cliente sobrenome&lt;/font&gt;" style="text;strokeColor=none;fillColor=none;html=1;fontSize=24;fontStyle=1;verticalAlign=middle;align=center;strokeWidth=4;" vertex="1" parent="1">
          <mxGeometry x="-3938.5" y="-435" width="317" height="40" as="geometry" />
        </mxCell>
        <mxCell id="YzzwRAZCWaj9JnVzKXwe-685" value="&lt;font style=&quot;font-size: 36px;&quot;&gt;Cliente sobrenome&lt;/font&gt;" style="text;strokeColor=none;fillColor=none;html=1;fontSize=24;fontStyle=1;verticalAlign=middle;align=center;strokeWidth=4;" vertex="1" parent="1">
          <mxGeometry x="-3940" y="-375" width="317" height="40" as="geometry" />
        </mxCell>
        <mxCell id="YzzwRAZCWaj9JnVzKXwe-686" value="&lt;font style=&quot;font-size: 36px;&quot;&gt;Cliente sobrenome&lt;/font&gt;" style="text;strokeColor=none;fillColor=none;html=1;fontSize=24;fontStyle=1;verticalAlign=middle;align=center;strokeWidth=4;" vertex="1" parent="1">
          <mxGeometry x="-3940" y="-314" width="317" height="40" as="geometry" />
        </mxCell>
        <mxCell id="YzzwRAZCWaj9JnVzKXwe-687" value="" style="shape=image;verticalLabelPosition=bottom;labelBackgroundColor=default;verticalAlign=top;aspect=fixed;imageAspect=0;image=https://static.vecteezy.com/system/resources/previews/020/790/903/non_2x/trash-can-icon-for-web-ui-design-vector.jpg;" vertex="1" parent="1">
          <mxGeometry x="-3429" y="-988" width="56" height="56" as="geometry" />
        </mxCell>
        <mxCell id="YzzwRAZCWaj9JnVzKXwe-688" value="" style="shape=image;verticalLabelPosition=bottom;labelBackgroundColor=default;verticalAlign=top;aspect=fixed;imageAspect=0;image=https://static.vecteezy.com/system/resources/previews/020/790/903/non_2x/trash-can-icon-for-web-ui-design-vector.jpg;" vertex="1" parent="1">
          <mxGeometry x="-3429" y="-927" width="56" height="56" as="geometry" />
        </mxCell>
        <mxCell id="YzzwRAZCWaj9JnVzKXwe-689" value="" style="shape=image;verticalLabelPosition=bottom;labelBackgroundColor=default;verticalAlign=top;aspect=fixed;imageAspect=0;image=https://static.vecteezy.com/system/resources/previews/020/790/903/non_2x/trash-can-icon-for-web-ui-design-vector.jpg;" vertex="1" parent="1">
          <mxGeometry x="-3429" y="-866.5" width="55" height="55" as="geometry" />
        </mxCell>
        <mxCell id="YzzwRAZCWaj9JnVzKXwe-690" value="" style="shape=image;verticalLabelPosition=bottom;labelBackgroundColor=default;verticalAlign=top;aspect=fixed;imageAspect=0;image=https://static.vecteezy.com/system/resources/previews/020/790/903/non_2x/trash-can-icon-for-web-ui-design-vector.jpg;" vertex="1" parent="1">
          <mxGeometry x="-3429" y="-806" width="56" height="56" as="geometry" />
        </mxCell>
        <mxCell id="YzzwRAZCWaj9JnVzKXwe-691" value="" style="shape=image;verticalLabelPosition=bottom;labelBackgroundColor=default;verticalAlign=top;aspect=fixed;imageAspect=0;image=https://static.vecteezy.com/system/resources/previews/020/790/903/non_2x/trash-can-icon-for-web-ui-design-vector.jpg;" vertex="1" parent="1">
          <mxGeometry x="-3429" y="-746" width="56" height="56" as="geometry" />
        </mxCell>
        <mxCell id="YzzwRAZCWaj9JnVzKXwe-692" value="" style="shape=image;verticalLabelPosition=bottom;labelBackgroundColor=default;verticalAlign=top;aspect=fixed;imageAspect=0;image=https://static.vecteezy.com/system/resources/previews/020/790/903/non_2x/trash-can-icon-for-web-ui-design-vector.jpg;" vertex="1" parent="1">
          <mxGeometry x="-3428" y="-685" width="56" height="56" as="geometry" />
        </mxCell>
        <mxCell id="YzzwRAZCWaj9JnVzKXwe-693" value="" style="shape=image;verticalLabelPosition=bottom;labelBackgroundColor=default;verticalAlign=top;aspect=fixed;imageAspect=0;image=https://static.vecteezy.com/system/resources/previews/020/790/903/non_2x/trash-can-icon-for-web-ui-design-vector.jpg;" vertex="1" parent="1">
          <mxGeometry x="-3428" y="-625" width="56" height="56" as="geometry" />
        </mxCell>
        <mxCell id="YzzwRAZCWaj9JnVzKXwe-694" value="" style="shape=image;verticalLabelPosition=bottom;labelBackgroundColor=default;verticalAlign=top;aspect=fixed;imageAspect=0;image=https://static.vecteezy.com/system/resources/previews/020/790/903/non_2x/trash-can-icon-for-web-ui-design-vector.jpg;" vertex="1" parent="1">
          <mxGeometry x="-3428" y="-564" width="56" height="56" as="geometry" />
        </mxCell>
        <mxCell id="YzzwRAZCWaj9JnVzKXwe-695" value="" style="shape=image;verticalLabelPosition=bottom;labelBackgroundColor=default;verticalAlign=top;aspect=fixed;imageAspect=0;image=https://static.vecteezy.com/system/resources/previews/020/790/903/non_2x/trash-can-icon-for-web-ui-design-vector.jpg;" vertex="1" parent="1">
          <mxGeometry x="-3428" y="-504" width="56" height="56" as="geometry" />
        </mxCell>
        <mxCell id="YzzwRAZCWaj9JnVzKXwe-696" value="" style="shape=image;verticalLabelPosition=bottom;labelBackgroundColor=default;verticalAlign=top;aspect=fixed;imageAspect=0;image=https://static.vecteezy.com/system/resources/previews/020/790/903/non_2x/trash-can-icon-for-web-ui-design-vector.jpg;" vertex="1" parent="1">
          <mxGeometry x="-3428" y="-443" width="56" height="56" as="geometry" />
        </mxCell>
        <mxCell id="YzzwRAZCWaj9JnVzKXwe-697" value="" style="shape=image;verticalLabelPosition=bottom;labelBackgroundColor=default;verticalAlign=top;aspect=fixed;imageAspect=0;image=https://static.vecteezy.com/system/resources/previews/020/790/903/non_2x/trash-can-icon-for-web-ui-design-vector.jpg;" vertex="1" parent="1">
          <mxGeometry x="-3428" y="-383" width="56" height="56" as="geometry" />
        </mxCell>
        <mxCell id="YzzwRAZCWaj9JnVzKXwe-698" value="" style="shape=image;verticalLabelPosition=bottom;labelBackgroundColor=default;verticalAlign=top;aspect=fixed;imageAspect=0;image=https://static.vecteezy.com/system/resources/previews/020/790/903/non_2x/trash-can-icon-for-web-ui-design-vector.jpg;" vertex="1" parent="1">
          <mxGeometry x="-3428" y="-322" width="56" height="56" as="geometry" />
        </mxCell>
        <mxCell id="YzzwRAZCWaj9JnVzKXwe-699" value="" style="shape=image;verticalLabelPosition=bottom;labelBackgroundColor=default;verticalAlign=top;aspect=fixed;imageAspect=0;image=https://cdn-icons-png.flaticon.com/512/4140/4140115.png;" vertex="1" parent="1">
          <mxGeometry x="-3486.5" y="-985.5" width="51" height="51" as="geometry" />
        </mxCell>
        <mxCell id="YzzwRAZCWaj9JnVzKXwe-700" value="" style="shape=image;verticalLabelPosition=bottom;labelBackgroundColor=default;verticalAlign=top;aspect=fixed;imageAspect=0;image=https://cdn-icons-png.flaticon.com/512/4140/4140115.png;" vertex="1" parent="1">
          <mxGeometry x="-3486.5" y="-924.5" width="51" height="51" as="geometry" />
        </mxCell>
        <mxCell id="YzzwRAZCWaj9JnVzKXwe-701" value="" style="shape=image;verticalLabelPosition=bottom;labelBackgroundColor=default;verticalAlign=top;aspect=fixed;imageAspect=0;image=https://cdn-icons-png.flaticon.com/512/4140/4140115.png;" vertex="1" parent="1">
          <mxGeometry x="-3486.5" y="-864.5" width="51" height="51" as="geometry" />
        </mxCell>
        <mxCell id="YzzwRAZCWaj9JnVzKXwe-702" value="" style="shape=image;verticalLabelPosition=bottom;labelBackgroundColor=default;verticalAlign=top;aspect=fixed;imageAspect=0;image=https://cdn-icons-png.flaticon.com/512/4140/4140115.png;" vertex="1" parent="1">
          <mxGeometry x="-3486.5" y="-803.5" width="51" height="51" as="geometry" />
        </mxCell>
        <mxCell id="YzzwRAZCWaj9JnVzKXwe-703" value="" style="shape=image;verticalLabelPosition=bottom;labelBackgroundColor=default;verticalAlign=top;aspect=fixed;imageAspect=0;image=https://cdn-icons-png.flaticon.com/512/4140/4140115.png;" vertex="1" parent="1">
          <mxGeometry x="-3486.5" y="-743.5" width="51" height="51" as="geometry" />
        </mxCell>
        <mxCell id="YzzwRAZCWaj9JnVzKXwe-704" value="" style="shape=image;verticalLabelPosition=bottom;labelBackgroundColor=default;verticalAlign=top;aspect=fixed;imageAspect=0;image=https://cdn-icons-png.flaticon.com/512/4140/4140115.png;" vertex="1" parent="1">
          <mxGeometry x="-3486.5" y="-682.5" width="51" height="51" as="geometry" />
        </mxCell>
        <mxCell id="YzzwRAZCWaj9JnVzKXwe-705" value="" style="shape=image;verticalLabelPosition=bottom;labelBackgroundColor=default;verticalAlign=top;aspect=fixed;imageAspect=0;image=https://cdn-icons-png.flaticon.com/512/4140/4140115.png;" vertex="1" parent="1">
          <mxGeometry x="-3486.5" y="-620.5" width="51" height="51" as="geometry" />
        </mxCell>
        <mxCell id="YzzwRAZCWaj9JnVzKXwe-706" value="" style="shape=image;verticalLabelPosition=bottom;labelBackgroundColor=default;verticalAlign=top;aspect=fixed;imageAspect=0;image=https://cdn-icons-png.flaticon.com/512/4140/4140115.png;" vertex="1" parent="1">
          <mxGeometry x="-3486.5" y="-561.5" width="51" height="51" as="geometry" />
        </mxCell>
        <mxCell id="YzzwRAZCWaj9JnVzKXwe-707" value="" style="shape=image;verticalLabelPosition=bottom;labelBackgroundColor=default;verticalAlign=top;aspect=fixed;imageAspect=0;image=https://cdn-icons-png.flaticon.com/512/4140/4140115.png;" vertex="1" parent="1">
          <mxGeometry x="-3486.5" y="-501.5" width="51" height="51" as="geometry" />
        </mxCell>
        <mxCell id="YzzwRAZCWaj9JnVzKXwe-708" value="" style="shape=image;verticalLabelPosition=bottom;labelBackgroundColor=default;verticalAlign=top;aspect=fixed;imageAspect=0;image=https://cdn-icons-png.flaticon.com/512/4140/4140115.png;" vertex="1" parent="1">
          <mxGeometry x="-3486.5" y="-440.5" width="51" height="51" as="geometry" />
        </mxCell>
        <mxCell id="YzzwRAZCWaj9JnVzKXwe-709" value="" style="shape=image;verticalLabelPosition=bottom;labelBackgroundColor=default;verticalAlign=top;aspect=fixed;imageAspect=0;image=https://cdn-icons-png.flaticon.com/512/4140/4140115.png;" vertex="1" parent="1">
          <mxGeometry x="-3486.5" y="-380.5" width="51" height="51" as="geometry" />
        </mxCell>
        <mxCell id="YzzwRAZCWaj9JnVzKXwe-710" value="" style="shape=image;verticalLabelPosition=bottom;labelBackgroundColor=default;verticalAlign=top;aspect=fixed;imageAspect=0;image=https://cdn-icons-png.flaticon.com/512/4140/4140115.png;" vertex="1" parent="1">
          <mxGeometry x="-3486.5" y="-319.5" width="51" height="51" as="geometry" />
        </mxCell>
        <mxCell id="YzzwRAZCWaj9JnVzKXwe-711" value="" style="whiteSpace=wrap;html=1;aspect=fixed;fillColor=#e1d5e7;strokeColor=#9673a6;" vertex="1" parent="1">
          <mxGeometry x="-3931.25" y="-250" width="80" height="80" as="geometry" />
        </mxCell>
        <mxCell id="YzzwRAZCWaj9JnVzKXwe-712" value="&lt;font color=&quot;#cc99ff&quot; style=&quot;font-size: 100px;&quot;&gt;+&lt;/font&gt;" style="text;strokeColor=none;fillColor=none;html=1;fontSize=24;fontStyle=1;verticalAlign=middle;align=center;" vertex="1" parent="1">
          <mxGeometry x="-3940.5" y="-230" width="98.5" height="40" as="geometry" />
        </mxCell>
      </root>
    </mxGraphModel>
  </diagram>
</mxfile>
